<?xml version="1.0"?>
<svg xmlns="http://www.w3.org/2000/svg" xmlns:xlink="http://www.w3.org/1999/xlink" xmlns:svgjs="http://svgjs.com/svgjs" version="1.1" width="512" height="512" x="0" y="0" viewBox="0 0 512 512" style="enable-background:new 0 0 512 512" xml:space="preserve" class=""><g><g xmlns="http://www.w3.org/2000/svg"><path d="m437 0h-362c-41.355 0-75 33.645-75 75v362c0 41.355 33.645 75 75 75h362c41.355 0 75-33.645 75-75v-362c0-41.355-33.645-75-75-75z" fill="#00abe9" data-original="#ff7d47" style="" class=""/><path d="m437 0h-181v512h181c41.355 0 75-33.645 75-75v-362c0-41.355-33.645-75-75-75z" fill="#0095ff" data-original="#ff3838" style="" class=""/><g><path d="m376 171c8.284 0 15-6.716 15-15v-60c0-8.284-6.716-15-15-15h-240c-5.682 0-10.876 3.21-13.416 8.292-2.541 5.082-1.993 11.163 1.416 15.708l113.25 151-113.25 151c-3.409 4.545-3.957 10.626-1.416 15.708 2.54 5.082 7.734 8.292 13.416 8.292h240c8.284 0 15-6.716 15-15v-60c0-8.284-6.716-15-15-15s-15 6.716-15 15v45h-195l102-136c4-5.333 4-12.667 0-18l-102-136h195v45c0 8.284 6.716 15 15 15z" fill="#e7e9ea" data-original="#eae7ea" style="" class=""/></g><g fill="#d5d3ea"><path d="m376 431c8.284 0 15-6.716 15-15v-60c0-8.284-6.716-15-15-15s-15 6.716-15 15v45h-105v30z" fill="#d3deea" data-original="#d5d3ea" style="" class=""/><path d="m268 265c4-5.333 4-12.667 0-18l-12-16v50z" fill="#d3deea" data-original="#d5d3ea" style="" class=""/><path d="m376 171c8.284 0 15-6.716 15-15v-60c0-8.284-6.716-15-15-15h-120v30h105v45c0 8.284 6.716 15 15 15z" fill="#d3deea" data-original="#d5d3ea" style="" class=""/></g></g></g></svg>
