<?xml version="1.0"?>
<svg xmlns="http://www.w3.org/2000/svg" xmlns:xlink="http://www.w3.org/1999/xlink" xmlns:svgjs="http://svgjs.com/svgjs" version="1.1" width="512" height="512" x="0" y="0" viewBox="0 0 512 512" style="enable-background:new 0 0 512 512" xml:space="preserve" class=""><g>
<g xmlns="http://www.w3.org/2000/svg">
	<path style="" d="M78.701,475.725l-31.82,31.82c-5.939,5.939-15.273,5.94-21.213,0L4.455,486.332   c-5.94-5.94-5.939-15.274,0-21.213l31.82-31.82h42.426V475.725z" fill="#575f64" data-original="#575f64" class=""/>
	<path style="" d="M78.701,433.299v42.426l-31.82,31.82c-5.939,5.939-15.273,5.94-21.213,0l-10.607-10.607   L78.701,433.299z" fill="#32393f" data-original="#32393f"/>
	
		<rect x="31.127" y="360.873" transform="matrix(0.7071 -0.7071 0.7071 0.7071 -240.9113 200.1339)" style="" width="180" height="60" fill="#7c8388" data-original="#7c8388" class=""/>
	
		<rect x="41.734" y="386.479" transform="matrix(0.7071 -0.7071 0.7071 0.7071 -245.3047 210.7405)" style="" width="180" height="30" fill="#575f64" data-original="#575f64" class=""/>
	<path style="" d="M503.25,51.177l-297.27,297.27l-42.426-42.426L460.823,8.75c11.667-11.667,30.759-11.667,42.426,0   C514.917,20.417,514.917,39.51,503.25,51.177z" fill="#77dfff" data-original="#ff9100" class=""/>
	<path style="" d="M503.25,51.177l-297.27,297.27l-21.213-21.213L503.25,8.75   C514.917,20.417,514.917,39.51,503.25,51.177z" fill="#1aa9ff" data-original="#ff641a" class=""/>
	<path style="" d="M159.003,210.425v-42.426c0-8.286,6.712-14.998,14.998-14.998S189,159.712,189,167.998v42.426   c0,8.286-6.712,14.998-14.998,14.998C165.715,225.423,159.003,218.711,159.003,210.425z" fill="#77dfff" data-original="#ffda2d" class=""/>
	<path style="" d="M222.003,146.425v-42.426c0-8.286,6.712-14.998,14.998-14.998S252,95.712,252,103.998v42.426   c0,8.286-6.712,14.998-14.998,14.998C228.715,161.423,222.003,154.711,222.003,146.425z" fill="#77dfff" data-original="#ffda2d" class=""/>
	<path style="" d="M286.003,83.002V40.575c0-8.286,6.712-14.998,14.998-14.998S316,32.289,316,40.575v42.426   C316,91.288,309.288,98,301.002,98C292.715,98,286.003,91.288,286.003,83.002z" fill="#77dfff" data-original="#ffda2d" class=""/>
	<path style="" d="M413.577,208.002c0-8.286,6.712-14.998,14.998-14.998h42.426c8.286,0,14.998,6.712,14.998,14.998   S479.288,223,471.002,223h-42.426C420.289,223,413.577,216.288,413.577,208.002z" fill="#77dfff" data-original="#fdbf00" class=""/>
	<path style="" d="M350,272.002c0-8.286,6.712-14.998,14.998-14.998h42.426c8.286,0,14.998,6.712,14.998,14.998   S415.711,287,407.425,287h-42.426C356.712,287,350,280.288,350,272.002z" fill="#77dfff" data-original="#fdbf00" class=""/>
	<path style="" d="M286,335.002c0-8.286,6.712-14.998,14.998-14.998h42.426c8.286,0,14.998,6.712,14.998,14.998   S351.711,350,343.425,350h-42.426C292.712,350,286,343.288,286,335.002z" fill="#77dfff" data-original="#fdbf00" class=""/>
	<path style="" d="M248.407,348.446l-84.853-84.853c-5.94-5.94-15.273-5.94-21.213,0l-21.213,21.213   c-5.939,5.939-5.94,15.273,0,21.213l84.853,84.853c5.94,5.94,15.274,5.939,21.213,0l21.213-21.213   C254.347,363.719,254.347,354.387,248.407,348.446z" fill="#575f64" data-original="#575f64" class=""/>
	<path style="" d="M248.407,369.659l-21.213,21.213c-5.939,5.939-15.273,5.94-21.213,0l-42.426-42.426l42.426-42.426   l42.426,42.426C254.347,354.387,254.347,363.719,248.407,369.659z" fill="#32393f" data-original="#32393f"/>
</g>















</g></svg>
