<svg width="200" height="200" viewBox="0 0 200 200" fill="none" xmlns="http://www.w3.org/2000/svg">
<g clip-path="url(#clip0)">
<path d="M30.7424 185.83L18.3127 198.26C15.9928 200.58 12.3467 200.58 10.0264 198.26L1.74009 189.974C-0.580225 187.654 -0.579834 184.007 1.74009 181.687L14.1698 169.258H30.7424V185.83Z" fill="#575F64"/>
<path d="M30.7422 169.258V185.83L18.3125 198.26C15.9926 200.58 12.3465 200.58 10.0262 198.26L5.88281 194.117L30.7422 169.258Z" fill="#32393F"/>
<path d="M63.8879 119.54L14.1699 169.258L30.7426 185.83L80.4606 136.112L63.8879 119.54Z" fill="#7C8388"/>
<path d="M72.173 127.825L22.4551 177.543L30.7414 185.829L80.4594 136.111L72.173 127.825Z" fill="#575F64"/>
<path d="M196.582 19.9911L80.4613 136.112L63.8887 119.54L180.009 3.41807C184.567 -1.13936 192.025 -1.13936 196.582 3.41807C201.14 7.97549 201.14 15.4337 196.582 19.9911Z" fill="#77DFFF"/>
<path d="M196.581 19.991L80.4602 136.112L72.1738 127.826L196.581 3.41797C201.139 7.97539 201.139 15.4336 196.581 19.991Z" fill="#1AA9FF"/>
<path d="M97.0346 136.111L63.8889 102.965C61.5686 100.645 57.9229 100.645 55.6026 102.965L47.3163 111.251C44.9963 113.571 44.9959 117.217 47.3163 119.538L80.462 152.683C82.7823 155.004 86.4284 155.003 88.7483 152.683L97.0346 144.397C99.3549 142.077 99.3549 138.431 97.0346 136.111Z" fill="#575F64"/>
<path d="M97.034 144.398L88.7477 152.684C86.4277 155.004 82.7816 155.005 80.4613 152.684L63.8887 136.112L80.4613 119.539L97.034 136.112C99.3543 138.432 99.3543 142.078 97.034 144.398Z" fill="#32393F"/>
</g>
<defs>
<clipPath id="clip0">
<rect width="200" height="200" fill="white"/>
</clipPath>
</defs>
</svg>
