<svg viewBox="0 0 148 359" fill="none" xmlns="http://www.w3.org/2000/svg">
<path d="M141.249 290.554C139.862 288.522 137.201 287.799 134.979 288.852C110.397 300.489 82.4974 312.792 77.0214 313.867C76.8834 313.744 76.6644 313.519 76.3774 313.13C75.6354 312.125 75.2744 310.812 75.2744 309.115C75.2744 295.21 85.7694 252.91 106.466 183.396C123.917 124.99 125.935 112.897 125.935 108.882C125.935 102.684 123.562 97.4466 119.07 93.7356C114.803 90.2166 108.841 88.4336 101.351 88.4336C88.8924 88.4336 74.4524 93.1636 57.2054 102.895C40.4924 112.328 21.8534 128.305 1.80941 150.382C0.240413 152.111 0.0764086 154.696 1.41441 156.61C2.75441 158.525 5.2394 159.254 7.4004 158.374C14.4374 155.502 49.8024 141.015 54.9574 137.777C59.1784 135.131 62.8324 133.788 65.8184 133.788C65.9254 133.788 66.0174 133.792 66.0944 133.798C66.1304 133.996 66.1644 134.298 66.1644 134.731C66.1644 137.778 65.5374 141.385 64.3084 145.434C34.1724 243.075 19.5234 302.932 19.5234 328.428C19.5234 337.426 22.0244 344.67 26.9554 349.956C31.9804 355.349 38.7584 358.083 47.1014 358.083C55.9924 358.083 66.8134 354.369 80.1814 346.729C93.1174 339.337 112.861 323.076 140.544 297.012C142.337 295.325 142.636 292.586 141.249 290.554Z"/>
<path d="M140.282 7.67122C135.357 2.63022 129.055 0.0742188 121.553 0.0742188C112.213 0.0742188 104.078 3.76522 97.3775 11.0452C90.7835 18.2052 87.4395 26.9912 87.4395 37.1582C87.4395 45.1912 89.9025 51.8482 94.7595 56.9432C99.6815 62.1152 105.898 64.7372 113.235 64.7372C122.193 64.7372 130.284 60.8392 137.282 53.1512C144.158 45.5982 147.645 36.7182 147.645 26.7582C147.646 19.1042 145.169 12.6832 140.282 7.67122Z"/>
</svg>
