<svg width="430" height="446" viewBox="0 0 430 446" fill="none" xmlns="http://www.w3.org/2000/svg">
<path d="M340.658 347.998C387.119 347.998 424.783 310.334 424.783 263.873C424.783 217.412 387.119 179.748 340.658 179.748C294.197 179.748 256.533 217.412 256.533 263.873C256.533 310.334 294.197 347.998 340.658 347.998Z" fill="#D92F52"/>
<path d="M313.393 291.137C340.66 318.404 381.977 323.016 414.025 305.022C410.339 311.587 405.726 317.773 400.14 323.358C367.287 356.211 314.024 356.211 281.171 323.358C248.318 290.505 248.318 237.242 281.171 204.389C286.757 198.803 292.942 194.191 299.508 190.504C281.514 222.553 286.126 263.871 313.393 291.137Z" fill="#E83A25"/>
<path d="M324.573 271.664L325.694 294.817L303.961 302.883L324.573 313.489L320.691 336.343L340.183 323.795L358.033 338.584L356.913 315.43L378.645 307.366L358.033 296.759L361.916 273.906L342.424 286.453L324.573 271.664Z" fill="#76B25D"/>
<path d="M323.586 269.41C370.047 269.41 407.711 231.746 407.711 185.285C407.711 138.824 370.047 101.16 323.586 101.16C277.125 101.16 239.461 138.824 239.461 185.285C239.461 231.746 277.125 269.41 323.586 269.41Z" fill="#F9395E"/>
<path d="M313.823 222.586C351.128 232.345 389.117 215.456 407.687 183.738C407.822 191.267 406.965 198.934 404.966 206.576C393.207 251.523 347.238 278.428 302.29 266.669C257.343 254.911 230.438 208.94 242.197 163.993C244.196 156.351 247.205 149.245 251.009 142.748C251.667 179.496 276.518 212.826 313.823 222.586Z" fill="#D92F52"/>
<path d="M4.07617 52.3301C4.66117 51.5781 5.25717 50.8361 5.86317 50.0941C9.08117 46.1231 12.4252 42.2261 15.9152 38.4121L42.9472 65.4331L84.2622 53.9081L89.1522 71.4621L57.7322 80.2291L163.005 185.492L150.111 198.376L85.4422 133.707V145.149H67.2192L67.2292 115.484L4.07617 52.3301Z" fill="#B16E60"/>
<path d="M78.8435 382.311C55.6345 349.04 40.7579 313.125 33.7818 276.741C29.3173 253.435 28.0813 229.94 29.9992 206.8C39.0502 174.79 53.7466 145.66 77.5044 131.016C77.5023 131.014 143.697 233.956 78.8435 382.311Z" fill="#8CC371"/>
<path d="M206.307 213.176C252.768 213.176 290.432 175.512 290.432 129.051C290.432 82.5898 252.768 44.9258 206.307 44.9258C159.846 44.9258 122.182 82.5898 122.182 129.051C122.182 175.512 159.846 213.176 206.307 213.176Z" fill="#F9395E"/>
<path d="M179.038 156.319C206.305 183.586 247.622 188.198 279.67 170.204C275.984 176.769 271.371 182.955 265.785 188.54C232.932 221.393 179.669 221.393 146.816 188.54C113.963 155.687 113.963 102.424 146.816 69.5705C152.402 63.9845 158.587 59.3725 165.153 55.6855C147.159 87.7345 151.771 129.054 179.038 156.319Z" fill="#D92F52"/>
<path d="M345.455 442.342C391.916 442.342 429.58 404.678 429.58 358.217C429.58 311.756 391.916 274.092 345.455 274.092C298.994 274.092 261.33 311.756 261.33 358.217C261.33 404.678 298.994 442.342 345.455 442.342Z" fill="#F9395E"/>
<path d="M318.19 385.479C345.457 412.746 386.774 417.358 418.822 399.364C415.136 405.929 410.523 412.115 404.937 417.7C372.084 450.553 318.821 450.553 285.968 417.7C253.115 384.847 253.115 331.584 285.968 298.731C291.554 293.145 297.739 288.533 304.305 284.846C286.311 316.895 290.923 358.212 318.19 385.479Z" fill="#D92F52"/>
<path d="M318.987 373.692L327.916 395.084L310.221 410.059L333.212 413.023L337.334 435.835L351.397 417.406L373.213 425.242L364.284 403.849L381.979 388.874L358.988 385.911L354.866 363.098L340.803 381.527L318.987 373.692Z" fill="#C11E45"/>
<path d="M201.457 442.227C247.918 442.227 285.582 404.563 285.582 358.102C285.582 311.641 247.918 273.977 201.457 273.977C154.996 273.977 117.332 311.641 117.332 358.102C117.332 404.563 154.996 442.227 201.457 442.227Z" fill="#F9395E"/>
<path d="M174.198 388.362C201.465 415.629 242.782 420.241 274.83 402.247C271.144 408.812 266.531 414.998 260.945 420.583C228.092 453.436 174.829 453.436 141.976 420.583C109.123 387.73 109.123 334.467 141.976 301.614C147.562 296.028 153.747 291.416 160.313 287.729C142.319 319.777 146.931 361.095 174.198 388.362Z" fill="#D92F52"/>
<path d="M185.379 368.889L186.499 392.043L164.766 400.108L185.379 410.714L181.496 433.567L200.988 421.02L218.839 435.809L217.718 412.655L239.45 404.59L218.839 393.983L222.721 371.13L203.229 383.678L185.379 368.889Z" fill="#C11E45"/>
<path d="M267.172 335.711C313.633 335.711 351.297 298.047 351.297 251.586C351.297 205.125 313.633 167.461 267.172 167.461C220.711 167.461 183.047 205.125 183.047 251.586C183.047 298.047 220.711 335.711 267.172 335.711Z" fill="#F9395E"/>
<path d="M239.903 278.85C267.17 306.117 308.487 310.729 340.535 292.735C336.849 299.3 332.236 305.486 326.65 311.071C293.797 343.924 240.534 343.924 207.681 311.071C174.828 278.218 174.828 224.955 207.681 192.102C213.267 186.516 219.452 181.904 226.018 178.217C208.024 210.265 212.636 251.584 239.903 278.85Z" fill="#D92F52"/>
<path d="M251.085 259.379L252.205 282.533L230.473 290.597L251.085 301.204L247.202 324.057L266.694 311.51L284.545 326.298L283.424 303.144L305.157 295.08L284.545 284.474L288.427 261.62L268.935 274.167L251.085 259.379Z" fill="#C11E45"/>
<path d="M119.006 318.961C165.467 318.961 203.131 281.297 203.131 234.836C203.131 188.375 165.467 150.711 119.006 150.711C72.5449 150.711 34.8809 188.375 34.8809 234.836C34.8809 281.297 72.5449 318.961 119.006 318.961Z" fill="#F9395E"/>
<path d="M91.7426 262.102C119.01 289.369 160.327 293.981 192.375 275.987C188.689 282.552 184.076 288.738 178.49 294.323C145.637 327.176 92.3736 327.176 59.5206 294.323C26.6676 261.47 26.6676 208.207 59.5206 175.354C65.1066 169.768 71.2916 165.156 77.8576 161.469C59.8636 193.517 64.4756 234.835 91.7426 262.102Z" fill="#D92F52"/>
<path d="M95.8346 218.807L82.4706 237.749L60.3776 230.733L70.0996 251.777L52.9766 267.403L76.0616 269.506L81.0316 292.148L94.3966 273.207L116.491 280.222L106.769 259.178L123.892 243.553L100.806 241.449L95.8346 218.807Z" fill="#C11E45"/>
<path d="M70 66.455C95.997 42.495 125.766 24.92 157.28 13.709C177.467 6.531 198.365 1.954 219.472 0C249.743 2.508 278.373 10.052 295.509 27.178C295.51 27.176 214.133 96.736 70 66.455Z" fill="#8CC371"/>
</svg>
