<svg height="512" viewBox="0 0 58 58" width="512" xmlns="http://www.w3.org/2000/svg"><g id="Page-1" fill="none" fill-rule="evenodd"><g id="055---Fire-Control-Powers" fill-rule="nonzero"><path id="Shape" d="m24.64 41.444c-5.215737-1.3006578-9.5768286-4.8650572-11.889574-9.7175649-2.3127455-4.8525077-2.3349097-10.4848759-.060426-15.3554351.1088271-.2253895.3378898-.3677943.588168-.3656551.2502782.0021391.4768733.1484384.581832.3756551.7082942 1.6428508 2.3521027 2.6827384 4.14 2.619 4 0 5-4 5-4s2.71-12.088 11.56-14.968c.2409209-.07682451.504515-.00601531.6745089.18119309.1699938.18720839.2151271.45639013.1154911.68880691-1.8486533 4.49591626-1.9732802 9.5158888-.35 14.098 0 0 1 4 5 4 1.7515404.086418 3.4246294-.7331313 4.43-2.17.1318584-.1974221.3616403-.3062876.5979305-.2832859s.440762.1741397.5320695.3932859c2.1037155 4.9385577 1.8952456 10.5580421-.568602 15.3271537-2.4638477 4.7691116-6.9263188 8.1908679-12.171398 9.3328463z" fill="#e7bb19"/><path id="Shape" d="m43 7h-1v-1c0-.55228475-.4477153-1-1-1s-1 .44771525-1 1v1h-1c-.5522847 0-1 .44771525-1 1s.4477153 1 1 1h1v1c0 .5522847.4477153 1 1 1s1-.4477153 1-1v-1h1c.5522847 0 1-.44771525 1-1s-.4477153-1-1-1z" fill="#eacc5b"/><path id="Shape" d="m19 8h-1v-1c0-.55228475-.4477153-1-1-1s-1 .44771525-1 1v1h-1c-.5522847 0-1 .44771525-1 1s.4477153 1 1 1h1v1c0 .5522847.4477153 1 1 1s1-.4477153 1-1v-1h1c.5522847 0 1-.44771525 1-1s-.4477153-1-1-1z" fill="#eacc5b"/><g fill="#e9931f"><path id="Shape" d="m9 12h-1v-1c0-.5522847-.44771525-1-1-1s-1 .4477153-1 1v1h-1c-.55228475 0-1 .4477153-1 1s.44771525 1 1 1h1v1c0 .5522847.44771525 1 1 1s1-.4477153 1-1v-1h1c.55228475 0 1-.4477153 1-1s-.44771525-1-1-1z"/><path id="Shape" d="m21 5c-.0549743.00022134-.1098587-.00446391-.164-.014-.544307-.08986583-.9130166-.60355345-.824-1.148.1892045-1.51621189 1.4075734-2.69672773 2.929-2.838.5522847-.03672694 1.0297731.38121525 1.0665.9335s-.3812153 1.02977306-.9335 1.0665c-.5967055.07374335-1.0547187.56462219-1.087 1.165-.0806644.48217523-.4981242.83534534-.987.835z"/><path id="Shape" d="m50 15c-.0546457.0002916-.1092044-.0043945-.163-.014-.544307-.0898658-.9130166-.6035535-.824-1.148.1880426-1.5164107 1.4064592-2.697376 2.928-2.838.5522847-.0367269 1.029773.3812153 1.0665.9335.0367269.5522847-.3812153 1.029773-.9335 1.0665-.597099.0732966-1.0556405.56429-1.088 1.165-.0806021.4818022-.4975022.8348566-.986.835z"/><path id="Shape" d="m32.64 41.31c3.8358374-1.4963645 6.3608894-5.1926277 6.36-9.31 0-2-.63-5-2-5l-1.11.83c-1.3383742 1.0024639-3.146076 1.1087185-4.5926756.2699522-1.4465996-.8387664-2.2524375-2.4604017-2.0473244-4.1199522l.75-5.98c-5.52 0-11 8.48-11 14 .0060468 4.408719 2.8930266 8.2955064 7.112 9.575z"/></g><path id="Shape" d="m23.807 36c-.3572565-.0000091-.6873717-.1906068-.866-.5-.6160599-1.0635894-.9406468-2.2708734-.941-3.5.1770325-2.4587574 1.0396574-4.8186775 2.49-6.812.3095556-.4575679.9314321-.5775556 1.389-.268s.5775556.9314321.268 1.389c-1.2202005 1.6662845-1.9625348 3.6339716-2.147 5.691-.0007447.877929.2307515 1.7404336.671 2.5.178453.3090879.1786463.6898553.0005074.9991243-.1781389.3092689-.5076037.5001532-.8645074.5008757z" fill="#dc7e25"/><path id="Shape" d="m56.68 44.57-18.74 11.41c-1.0968305.667384-2.3560847 1.020252-3.64 1.02l-26.3.0000001v-22.0000001h3.8c2.0715011.0028959 4.0808416.7079276 5.7 2s3.6284989 1.9971041 5.7 2h5.23c1.8105594.0354333 3.4712236 1.0136328 4.38 2.58.8396049 1.4277078.6138948 3.2415964-.55 4.42h2.35c.4319935.0002223.8610725-.0707278 1.27-.21l18.51-6.17c1.120338-.3678364 2.3505552.0181141 3.06.96v.01c.4649441.6171961.6465512 1.4025179.4997758 2.1611752s-.608183 1.4195768-1.2697758 1.8188248z" fill="#f4cea4"/><path id="Shape" d="m33.27 44c-.1123578.7580836-.4666159 1.4595847-1.01 2h-6.54c-1.5795473.0004853-3.1239072.4665759-4.44 1.34l-.72.49c-.4583963.3092795-1.0807205.1883963-1.39-.27s-.1883963-1.0807205.27-1.39l.73-.49c1.6440609-1.0946059 3.5748804-1.6790702 5.55-1.68z" fill="#f0be8c"/><rect id="Rectangle-path" fill="#2f9fc3" height="25" rx="2" width="9" y="33"/></g></g></svg>