<svg width="512" height="512" viewBox="0 0 512 512" fill="none" xmlns="http://www.w3.org/2000/svg">
<g clip-path="url(#clip0)">
<path d="M474.667 384H37.3333C16.7467 384 0 400.747 0 421.333V474.667C0 495.253 16.7467 512 37.3333 512H474.667C495.253 512 512 495.253 512 474.667V421.333C512 400.747 495.253 384 474.667 384Z" fill="#FF4848" fill-opacity="0.8"/>
<path d="M496 192H16C7.168 192 0 199.168 0 208C0 216.832 7.168 224 16 224H496C504.832 224 512 216.832 512 208C512 199.168 504.832 192 496 192Z" fill="#A9ACAF" fill-opacity="0.5"/>
<path d="M496 128H16C7.168 128 0 135.168 0 144C0 152.832 7.168 160 16 160H496C504.832 160 512 152.832 512 144C512 135.168 504.832 128 496 128Z" fill="#A9ACAF" fill-opacity="0.5"/>
<path d="M496 64H16C7.168 64 0 71.168 0 80C0 88.832 7.168 96 16 96H496C504.832 96 512 88.832 512 80C512 71.168 504.832 64 496 64Z" fill="#A9ACAF" fill-opacity="0.5"/>
<path d="M496 0H16C7.168 0 0 7.168 0 16C0 24.832 7.168 32 16 32H496C504.832 32 512 24.832 512 16C512 7.168 504.832 0 496 0Z" fill="#A9ACAF" fill-opacity="0.5"/>
<path d="M496 256H16C7.168 256 0 263.168 0 272C0 280.832 7.168 288 16 288H496C504.832 288 512 280.832 512 272C512 263.168 504.832 256 496 256Z" fill="#A9ACAF" fill-opacity="0.5"/>
<path d="M496 320H16C7.168 320 0 327.168 0 336C0 344.832 7.168 352 16 352H496C504.832 352 512 344.832 512 336C512 327.168 504.832 320 496 320Z" fill="#A9ACAF" fill-opacity="0.5"/>
</g>
<defs>
<clipPath id="clip0">
<rect width="512" height="512" fill="white"/>
</clipPath>
</defs>
</svg>
