<svg width="200" height="200" viewBox="0 0 200 200" fill="none" xmlns="http://www.w3.org/2000/svg" alt="Pokemon sem foto de variação.">
<path d="M190 50C176 50 148 50 128 74.5H134L131.5 79H134L131.5 82C151 77.5 160.5 87.5 190 50Z" fill="black" stroke="black"/>
<path d="M68.0004 38.5C65.969 32 57.5004 15 50.0003 6.5C48.4781 9.87055 47.5 18 47.5 24.5C47.5655 29.0445 48.6427 36 49.5 40C51.7504 50.5 63.3336 66.3333 67.5003 70.5L67.5004 66.5H70.0004L70.5004 63.5L72.5003 67C71.5004 49 70.0318 45 68.0004 38.5Z" fill="black" stroke="black"/>
<path d="M81.5 113.5C81.5 113.5 82 115 85 116C88 117 91.5 116 91.5 116C91.5 116 94.7429 117.949 97.5 118.5C100.257 119.051 102.5 117.5 102.5 117.5" stroke="black"/>
<path d="M82 93C82 99.6274 78.3141 106 75.0004 106C71.6867 106 69.5 102.127 69.5 95.5C69.5 91.2201 71.5 87.5 71.5 87.5C71.5 87.5 75.0008 81 78.0004 81C81 81 81.5 84.5 81.5 84.5C82 86 82 93 82 93Z" fill="black"/>
<ellipse cx="77.0002" cy="86.5662" rx="2.38414" ry="3.89695" transform="rotate(29.6667 77.0002 86.5662)" fill="white"/>
<path d="M122.499 103.996C120.971 111.206 116.088 115.03 112.847 114.343C109.605 113.656 106.47 108.706 107.999 101.496C109.527 94.2871 113.499 88.0008 118.5 88.0001C123.5 87.9993 124.028 96.7872 122.499 103.996Z" fill="black"/>
<ellipse cx="116.521" cy="93.5" rx="2.1567" ry="3.97609" transform="rotate(22.6523 116.521 93.5)" fill="white"/>
<path d="M83 79L85 83" stroke="black" stroke-width="1.5" stroke-linecap="round"/>
<path d="M110 88L113 85.5" stroke="black" stroke-width="1.5" stroke-linecap="round"/>
<ellipse cx="92.0117" cy="109.5" rx="2.60344" ry="1.86545" transform="rotate(15.6901 92.0117 109.5)" fill="black"/>
<path d="M129.5 112C125.9 123.2 118.667 127.333 115.5 128C127 143 119.5 156 116 160L119 159C118.6 160.6 119.167 162 119.5 162.5C119.5 160.5 122.5 158 124 157C124.4 157.8 124.167 159 124 159.5C135 150.5 139 151.5 139 138C140.6 137.6 142.333 142.167 143 144.5C143.8 141.3 143.333 138.5 143 137.5C143.8 137.5 145.333 139.833 146 141C146.4 135.8 144.167 129.5 143 127C143.8 126.2 147 126.667 148.5 127C144.5 120.6 134.165 111.333 132.5 111C130.5 110.6 129.667 111.5 129.5 112Z" fill="#989898"/>
<path d="M46.0001 116C54.0001 108.4 59.6668 105.5 61.5001 105C60 116 67.5 117.5 73.5 121.5C63.1 127.1 60.1667 142.5 60 149.5C50 143 52 138.5 51.0001 138C50.2002 137.6 49.3334 140.5 49 142C47.3999 139.2 47.6666 133.167 48 130.5C46.8 130.1 46.1667 134.333 46.0001 136.5C43.2001 128.5 48.1668 119.5 51.0001 116H46.0001Z" fill="#989898"/>
<path d="M77.4964 169C50.5004 152 65.5038 123.499 76.0001 123.5C87.0044 130 91.5 131 113 129C119.8 136.6 120.5 145.5 119 150.5C117.959 153.97 107 171 102.501 172.5L105.501 169L102.501 170C108 164 111.667 158.167 112.501 156C107.301 163.2 99.0001 168 95.0007 175C95.0007 173 94.0007 170.833 93.5007 170C93.5007 171.6 91.8341 175.667 91.0007 177.5C90.6007 175.5 89.8341 173.333 89.5007 172.5C89.5007 174.1 88.8341 176.5 88.5007 177.5C87.3007 173.5 80.6645 166.833 77.4964 164C76.293 166 77 167.5 77.4964 169Z" fill="#989898"/>
</svg>
