<svg width="200" height="200" viewBox="0 0 200 200" fill="none" xmlns="http://www.w3.org/2000/svg">
<path d="M200 100C200 155.229 155.229 200 100 200C44.7708 200 0 155.229 0 100C0 44.7708 44.7708 0 100 0C155.229 0 200 44.7708 200 100Z" fill="url(#paint0_radial)"/>
<path d="M103.036 91.1987L77.8037 99.4567C77.8037 99.4567 73.216 100.832 65.8756 102.667C58.5352 104.502 54.4062 95.7865 54.4062 95.7865L38.8079 64.5899C38.8079 64.5899 36.0553 59.5426 36.0553 55.4144C36.0553 49.4496 43.3957 47.6152 43.3957 47.6152L72.2984 39.3573C72.2984 39.3573 78.2625 37.0635 84.2265 38.4398C90.1906 39.8161 92.9432 45.3214 92.9432 45.3214L108.083 73.3066C108.083 73.3066 110.377 76.976 111.294 82.4813C112.212 87.9866 103.036 91.1987 103.036 91.1987Z" fill="white"/>
<path d="M109.918 93.4919C108.083 92.1156 101.201 94.8682 101.201 94.8682L70.0045 105.42C62.6642 108.631 57.1589 112.76 54.4062 118.266L49.8185 129.276C49.8185 129.276 48.3781 132.684 49.8203 133.405C50.7378 133.864 55.3238 132.488 55.3238 132.488L88.8143 120.56C92.0257 119.183 95.6976 118.266 99.8248 112.76L108.542 100.373C108.542 100.373 112.365 95.327 109.918 93.4919Z" fill="white"/>
<path d="M42.9369 129.276C40.186 129.276 38.8079 126.524 38.8079 126.524L21.3745 88.9042C21.3745 88.9042 20 85.9822 20 81.105C20 77.8936 21.3745 74.2234 21.3745 74.2234L25.5035 62.7541C25.5035 62.7541 26.8816 58.9171 30.0912 59.0839C32.5392 59.211 34.2202 62.7541 34.2202 62.7541L52.1142 97.1621C52.1142 97.1621 53.5684 99.9147 53.9492 104.502C54.2539 108.173 52.5711 112.302 52.5711 112.302L47.0659 126.524C47.0659 126.524 46.1501 129.276 42.9369 129.276Z" fill="white"/>
<path d="M146.163 132.029L111.755 113.219C111.755 113.219 109.92 112.302 109.92 108.173C109.92 105.224 111.755 103.126 111.755 103.126L130.106 80.1875C130.106 80.1875 131.941 77.8936 136.987 77.8936C140.657 77.8936 144.328 79.7287 144.328 79.7287L172.313 93.0331C172.313 93.0331 175.524 94.4094 175.983 99.4559C175.983 102.209 172.313 107.255 172.313 107.255L156.256 130.653C153.962 133.405 148.915 133.405 146.163 132.029Z" fill="white"/>
<path d="M115.884 119.183C110.837 115.972 104.414 116.889 104.873 122.395V134.782C104.873 138.452 109.002 143.498 114.049 146.251L131.941 155.426L141.575 160.014C147.08 163.225 151.209 161.849 151.668 154.968V143.957C151.668 140.287 149.374 137.534 146.622 136.158L115.884 119.183Z" fill="white"/>
<path d="M177.818 103.126L173.23 109.549L159.008 131.111C156.355 134.985 154.429 138.386 153.962 142.122L153.503 157.261C153.503 159.555 156.256 160.014 157.632 158.179L170.019 139.369L175.983 129.735C178.698 124.731 179.442 121.466 179.653 115.054C180.112 107.255 180.571 99.4559 177.818 103.126Z" fill="white"/>
<path d="M75.5222 115.499C75.0634 114.582 83.7801 109.535 84.6976 109.994C85.6152 110.453 75.981 116.417 75.5222 115.499Z" fill="#00E0FF"/>
<path d="M83.7801 118.252C83.3213 117.335 92.0381 112.288 92.9556 112.747C93.8732 113.206 84.2389 119.17 83.7801 118.252Z" fill="#00E0FF"/>
<path d="M65.8902 113.463C65.4314 112.545 74.1481 107.499 75.0656 107.957C75.9832 108.416 66.3489 114.38 65.8902 113.463Z" fill="#00E0FF"/>
<path d="M66.1592 80.6248C57.6322 80.6248 60.6561 91.1759 68.4553 90.7172C76.2544 90.2584 73.9606 80.6248 66.1592 80.6248Z" fill="#00E0FF"/>
<path d="M92.2846 72.3643C83.7577 72.3643 87.2404 81.9979 94.122 81.5391C101.004 81.0803 100.086 72.3643 92.2846 72.3643Z" fill="#00E0FF"/>
<path d="M79.6534 47.6152C71.8542 47.6152 74.1503 58.1663 81.9495 57.7076C89.7486 57.2488 86.0762 47.6152 79.6534 47.6152Z" fill="#00E0FF"/>
<path d="M53.5033 55.8732C44.9763 55.8732 48.0002 66.4243 55.7994 65.9655C63.5985 65.5067 61.3047 55.8732 53.5033 55.8732Z" fill="#00E0FF"/>
<path d="M35.1402 89.8224C33.161 90.2678 36.064 100.374 38.3569 99.9154C40.6498 99.4566 37.2899 89.3386 35.1402 89.8224Z" fill="#00E0FF"/>
<path d="M125.929 102.672C119.507 103.13 120.824 110.676 125.929 110.471C131.035 110.266 131.893 103.13 125.929 102.672Z" fill="#00E0FF"/>
<path d="M136.988 108.632C130.565 109.091 131.882 116.636 136.988 116.431C142.094 116.226 142.952 109.091 136.988 108.632Z" fill="#00E0FF"/>
<path d="M147.998 114.137C141.576 114.596 142.893 122.142 147.998 121.937C153.104 121.732 153.962 114.596 147.998 114.137Z" fill="#00E0FF"/>
<path d="M138.823 85.2347C132.4 85.6934 133.717 93.2388 138.823 93.0338C143.929 92.8288 144.787 85.6934 138.823 85.2347Z" fill="#00E0FF"/>
<path d="M149.834 91.1987C143.411 91.6575 144.728 99.2029 149.834 98.9979C154.939 98.7929 155.798 91.6575 149.834 91.1987Z" fill="#00E0FF"/>
<path d="M160.385 96.2452C153.962 96.704 155.28 104.249 160.385 104.044C165.491 103.839 166.349 96.704 160.385 96.2452Z" fill="#00E0FF"/>
<path d="M113.59 137.535C109.461 137.535 115.641 143.04 118.637 143.04C121.633 143.04 115.89 137.535 113.59 137.535Z" fill="#00E0FF"/>
<path d="M136.988 136.159C132.859 136.159 139.038 141.664 142.034 141.664C145.03 141.664 139.288 136.159 136.988 136.159Z" fill="#00E0FF"/>
<path d="M174.607 113.679L171.855 119.184M173.69 126.983L170.02 132.947M162.679 131.571L159.927 136.617M161.762 144.875L158.55 149.922M66.1592 80.6248C57.6322 80.6248 60.6561 91.1759 68.4553 90.7172C76.2544 90.2584 73.9606 80.6248 66.1592 80.6248ZM75.5222 115.499C75.0634 114.582 83.7801 109.535 84.6976 109.994C85.6152 110.453 75.981 116.417 75.5222 115.499ZM83.7801 118.252C83.3213 117.335 92.0381 112.288 92.9556 112.747C93.8732 113.206 84.2389 119.17 83.7801 118.252ZM65.8902 113.463C65.4314 112.545 74.1481 107.499 75.0656 107.957C75.9832 108.416 66.3489 114.38 65.8902 113.463ZM92.2846 72.3643C83.7577 72.3643 87.2404 81.9979 94.122 81.5391C101.004 81.0803 100.086 72.3643 92.2846 72.3643ZM79.6534 47.6152C71.8542 47.6152 74.1503 58.1663 81.9495 57.7076C89.7486 57.2488 86.0762 47.6152 79.6534 47.6152ZM53.5033 55.8732C44.9763 55.8732 48.0002 66.4243 55.7994 65.9655C63.5985 65.5067 61.3047 55.8732 53.5033 55.8732ZM35.1402 89.8224C33.161 90.2678 36.064 100.374 38.3569 99.9154C40.6498 99.4566 37.2899 89.3386 35.1402 89.8224ZM125.929 102.672C119.507 103.13 120.824 110.676 125.929 110.471C131.035 110.266 131.893 103.13 125.929 102.672ZM136.988 108.632C130.565 109.091 131.882 116.636 136.988 116.431C142.094 116.226 142.952 109.091 136.988 108.632ZM147.998 114.137C141.576 114.596 142.893 122.142 147.998 121.937C153.104 121.732 153.962 114.596 147.998 114.137ZM138.823 85.2347C132.4 85.6934 133.717 93.2388 138.823 93.0338C143.929 92.8288 144.787 85.6934 138.823 85.2347ZM149.834 91.1987C143.411 91.6575 144.728 99.2029 149.834 98.9979C154.939 98.7929 155.798 91.6575 149.834 91.1987ZM160.385 96.2452C153.962 96.704 155.28 104.249 160.385 104.044C165.491 103.839 166.349 96.704 160.385 96.2452ZM113.59 137.535C109.461 137.535 115.641 143.04 118.637 143.04C121.633 143.04 115.89 137.535 113.59 137.535ZM136.988 136.159C132.859 136.159 139.038 141.664 142.034 141.664C145.03 141.664 139.288 136.159 136.988 136.159Z" stroke="#00E0FF" stroke-linecap="round"/>
<defs>
<radialGradient id="paint0_radial" cx="0" cy="0" r="1" gradientUnits="userSpaceOnUse" gradientTransform="translate(100 100) scale(100)">
<stop offset="0.328125" stop-color="#00F1FF"/>
<stop offset="0.484375" stop-color="#00D8FF"/>
<stop offset="0.760417" stop-color="#00C0FF"/>
<stop offset="0.880208" stop-color="#00B2FF"/>
<stop offset="1" stop-color="#00ADFF"/>
</radialGradient>
</defs>
</svg>
