<svg width="170" height="170" viewBox="0 0 500 500" fill="none" xmlns="http://www.w3.org/2000/svg">
<path d="M500 250C500 388.073 388.073 500 250 500C111.927 500 0 388.073 0 250C0 111.927 111.927 0 250 0C388.073 0 500 111.927 500 250Z" fill="url(#paint0_radial)"/>
<path d="M250 50C139.719 50 50 139.719 50 250C50 360.281 139.719 450 250 450C286.57 450 322.357 440.028 353.485 421.174C361.786 416.144 364.441 405.339 359.411 397.038C354.382 388.736 343.577 386.082 335.276 391.112C309.639 406.644 280.149 414.854 250 414.854C165.036 414.854 94.8894 350.24 86.0845 267.573H180.504C188.361 298.628 216.533 321.684 250 321.684C283.462 321.684 311.639 298.628 319.492 267.573H413.893C411.051 293.832 401.866 319.098 386.897 341.495C381.501 349.563 383.67 360.478 391.739 365.868C399.807 371.264 410.721 369.095 416.112 361.027C438.28 327.871 450 289.48 450 250C450 139.719 360.281 50 250 50ZM250 85.1463C334.964 85.1463 405.111 149.76 413.916 232.427H319.496C311.639 201.372 283.467 178.316 250 178.316C216.538 178.316 188.361 201.367 180.504 232.427H86.0891C94.8894 149.76 165.036 85.1463 250 85.1463ZM250 286.538C229.855 286.538 213.462 270.145 213.462 250C213.462 229.855 229.855 213.462 250 213.462C270.145 213.462 286.533 229.855 286.533 250C286.533 270.145 270.145 286.538 250 286.538Z" fill="white"/>
<defs>
<radialGradient id="paint0_radial" cx="0" cy="0" r="1" gradientUnits="userSpaceOnUse" gradientTransform="translate(250 250) scale(250)">
<stop offset="0.328125" stop-color="#00F1FF"/>
<stop offset="0.484375" stop-color="#00D8FF"/>
<stop offset="0.760417" stop-color="#00C0FF"/>
<stop offset="0.880208" stop-color="#00B2FF"/>
<stop offset="1" stop-color="#00ADFF"/>
</radialGradient>
</defs>
</svg>
