<svg width="170" height="170" viewBox="0 0 200 200" fill="none" xmlns="http://www.w3.org/2000/svg">
<path d="M200 100C200 155.229 155.229 200 100 200C44.7708 200 0 155.229 0 100C0 44.7708 44.7708 0 100 0C155.229 0 200 44.7708 200 100Z" fill="url(#paint0_radial)"/>
<path d="M101.022 166.011L103.578 164.241C103.624 164.459 103.644 164.73 103.639 165.01C103.633 165.297 103.602 165.575 103.555 165.792C103.531 165.9 103.506 165.984 103.483 166.043C103.473 166.068 103.465 166.083 103.461 166.091C103.397 166.148 103.212 166.284 102.916 166.483C102.615 166.686 102.244 166.924 101.881 167.154C101.519 167.383 101.168 167.601 100.907 167.762C100.843 167.802 100.785 167.838 100.733 167.87C96.6897 165.465 92.8247 162.782 89.1778 159.849C88.8519 158.575 87.8071 157.889 86.4619 157.584C85.365 156.635 84.2901 155.663 83.2384 154.668C83.2034 154.26 83.1568 153.909 83.0877 153.62C83.0103 153.296 82.8894 152.979 82.6609 152.754C82.4027 152.5 82.0787 152.43 81.7567 152.467C81.5631 152.489 81.3608 152.551 81.1536 152.636C66.8139 138.2 57.4266 116.874 55.9234 95.9534L57.9192 98.7168C59.4096 123.344 75.189 150.401 100.474 166.025L100.752 166.197L101.022 166.011Z" fill="white" stroke="white"/>
<path d="M70.5673 74.7645L70.5761 74.7617L70.5847 74.7586C79.1906 71.6935 90.4042 67.2146 100.493 59.9278C110.119 67.0962 121.221 71.4619 130.163 74.8737L130.163 74.8738L130.173 74.8776C136.178 77.0147 139.655 77.9766 145.642 79.5451L145.184 94.0872L143.597 96.1802L143.92 81.1944L143.928 80.8075L143.556 80.7024C138.141 79.1742 135.112 78.2566 129.677 76.3136L129.673 76.3122C118.053 72.2747 111.153 68.7526 100.65 61.9778L100.376 61.8008L100.103 61.9809C90.2928 68.4682 83.0722 71.3911 70.9636 75.8375C64.5619 78.016 62.6308 78.641 57.5665 79.987L57.1787 80.0901L57.1954 80.4911C57.2869 82.6816 57.2871 84.6089 57.2873 86.5123C57.2877 89.6238 57.288 92.6712 57.687 96.6991L57.2177 96.0038L57.208 95.9894L57.1973 95.9757L55.8086 94.1982C55.6492 90.9373 55.6078 88.1626 55.5562 84.7124C55.5329 83.1566 55.5076 81.4636 55.4685 79.5266L70.5673 74.7645Z" fill="white" stroke="white"/>
<path d="M116.437 156.275L115.93 154.68C132.241 138.269 142.053 116.932 143.551 97.8997L145.099 95.9291C143.561 120.766 130.018 144.092 116.437 156.275Z" fill="white" stroke="white"/>
<path d="M170.238 64.5186C168.844 65.1577 167.109 65.9883 165.389 66.8116C164.806 67.0906 164.225 67.3688 163.66 67.6384C162.339 68.2681 161.104 68.8508 160.138 69.2839C159.656 69.5002 159.236 69.6814 158.904 69.8131C158.595 69.9353 158.302 70.0402 158.109 70.0645C158.078 70.0684 158.035 70.0721 157.987 70.0699C157.947 70.0681 157.858 70.0609 157.762 70.0126C157.646 69.9543 157.516 69.8309 157.484 69.6355C157.457 69.4759 157.513 69.3537 157.538 69.3052C157.589 69.2068 157.664 69.1384 157.694 69.1111C157.736 69.0726 157.784 69.0349 157.833 68.9996C158.021 68.8614 158.335 68.6687 158.729 68.4417C159.527 67.9819 160.729 67.3394 162.117 66.6301C164.812 65.2531 168.238 63.6093 170.825 62.5418C171.898 58.4653 172.242 55.9583 172.285 51.7221C168.955 52.8935 164.856 54.7531 162.411 55.8627C161.5 56.2762 160.818 56.5855 160.491 56.7163C160.445 56.7348 160.395 56.753 160.345 56.7665L160.343 56.7669C160.312 56.7754 160.209 56.8035 160.089 56.7856C160.023 56.7758 159.874 56.7404 159.759 56.5964C159.634 56.4385 159.64 56.2653 159.66 56.1708C159.679 56.0831 159.716 56.0197 159.735 55.9903C159.756 55.9558 159.779 55.9278 159.796 55.9079C159.903 55.7851 160.114 55.6265 160.35 55.4635C160.862 55.1102 161.729 54.577 162.876 53.9548C165.11 52.7431 168.433 51.1782 172.311 49.9342C172.316 49.859 172.321 49.7723 172.327 49.6749C172.348 49.2922 172.377 48.7443 172.405 48.0848C172.46 46.765 172.512 45.0018 172.497 43.2222C172.483 41.438 172.401 39.6569 172.195 38.2938C172.091 37.6093 171.96 37.0573 171.803 36.6703C171.646 36.284 171.514 36.1871 171.475 36.1683C171.453 36.1722 171.411 36.1817 171.342 36.2046C171.161 36.2643 170.877 36.3842 170.406 36.602C165.758 39.3423 159.576 42.5326 157.074 43.7425C156.916 43.8192 156.782 43.8789 156.681 43.9139C156.643 43.9272 156.557 43.9563 156.462 43.9606L156.461 43.9606C156.428 43.9621 156.273 43.9691 156.126 43.8603C156.035 43.7936 155.965 43.6955 155.935 43.5777C155.908 43.4701 155.921 43.3784 155.935 43.3226C155.961 43.221 156.013 43.1511 156.03 43.1278C156.054 43.095 156.08 43.068 156.099 43.0487C156.137 43.0096 156.182 42.971 156.225 42.9358C156.313 42.8638 156.431 42.7762 156.571 42.6778C157.131 42.2835 158.15 41.6328 159.379 40.894C161.716 39.49 164.872 37.7314 167.154 36.7821C166.961 33.9222 166.761 31.8905 166.515 30.526C166.386 29.8135 166.249 29.3094 166.106 28.9726C165.971 28.6521 165.862 28.5604 165.824 28.538C165.814 28.5375 165.765 28.5329 165.657 28.5511C165.515 28.5749 165.33 28.6275 165.107 28.7087C164.664 28.8705 164.133 29.1227 163.612 29.394C163.095 29.6638 162.601 29.9453 162.236 30.1601C162.053 30.2673 161.904 30.3574 161.8 30.4206C161.748 30.4522 161.708 30.477 161.68 30.4939L161.65 30.5129L161.642 30.5177L161.64 30.5188L161.64 30.519L161.64 30.519L161.64 30.5191L161.634 30.5228C154.597 34.7801 149.459 38.8071 144.504 46.0999C139.533 53.416 134.735 64.036 128.435 81.5083L128.413 81.5691L128.376 81.6224C125.79 85.3749 121.727 90.0887 107.555 105.405C109.486 108.291 110.798 110.719 111.763 113.379C112.616 115.727 113.194 118.24 113.697 121.386C115.54 117.616 118.071 115.147 121.757 112.68C123.834 111.29 126.285 109.896 129.183 108.269C129.478 108.103 129.779 107.935 130.084 107.764C132.751 106.269 135.789 104.566 139.267 102.486C148.776 88.6107 154.265 82.1372 164.26 77.4912C167.406 73.2124 168.662 70.0982 170.238 64.5186ZM158.365 69.8521C158.358 69.8587 158.359 69.8582 158.366 69.8513C158.366 69.8516 158.365 69.8519 158.365 69.8521ZM156.34 42.9732C156.34 42.9734 156.342 42.9729 156.347 42.9713C156.343 42.9723 156.341 42.973 156.34 42.9732Z" fill="white" stroke="white"/>
<path d="M30.762 64.4819C32.1564 65.121 33.8915 65.9517 35.6114 66.7751C36.194 67.0541 36.7749 67.3321 37.3401 67.6017C38.6609 68.2314 39.8961 68.8141 40.8618 69.2472C41.3442 69.4636 41.7642 69.6448 42.0963 69.7764C42.4046 69.8987 42.6974 70.0036 42.8911 70.0278C42.9223 70.0317 42.9649 70.0354 43.0129 70.0332C43.0531 70.0314 43.1417 70.0242 43.2379 69.9759C43.3541 69.9176 43.4841 69.7942 43.5163 69.5988C43.5426 69.4392 43.4873 69.317 43.462 69.2686C43.4107 69.1702 43.3363 69.1017 43.3062 69.0745C43.2638 69.036 43.2155 68.9983 43.1673 68.963C42.9787 68.8248 42.665 68.632 42.2709 68.405C41.4726 67.9452 40.2708 67.3028 38.8826 66.5934C36.1878 65.2164 32.762 63.5726 30.1753 62.5051C29.1017 58.4285 28.7576 55.9215 28.7153 51.6852C32.0453 52.8566 36.1435 54.7163 38.5887 55.8259C39.4999 56.2394 40.1816 56.5487 40.5084 56.6795C40.5547 56.698 40.605 56.7162 40.6549 56.7297L40.6564 56.7301C40.6875 56.7386 40.7913 56.7667 40.9112 56.7488C40.9767 56.739 41.1263 56.7036 41.2404 56.5596C41.3657 56.4017 41.3597 56.2284 41.3396 56.134C41.321 56.0463 41.2838 55.9829 41.2653 55.9535C41.2434 55.919 41.2207 55.891 41.2035 55.8711C41.097 55.7483 40.8855 55.5897 40.6494 55.4267C40.1379 55.0734 39.2706 54.5402 38.1237 53.918C35.8903 52.7063 32.5672 51.1413 28.6886 49.8973C28.6841 49.8222 28.679 49.7355 28.6735 49.638C28.6517 49.2553 28.623 48.7074 28.5952 48.0479C28.5396 46.7281 28.4878 44.9648 28.5025 43.1853C28.5173 41.4011 28.5988 39.62 28.8052 38.2568C28.9089 37.5722 29.0402 37.0203 29.1974 36.6333C29.3543 36.247 29.4856 36.1501 29.5251 36.1313C29.5466 36.1352 29.5885 36.1447 29.6581 36.1676C29.8391 36.2272 30.1231 36.3472 30.5942 36.565C35.2421 39.3053 41.4242 42.4957 43.9255 43.7056C44.0839 43.7822 44.2179 43.842 44.3187 43.877C44.357 43.8902 44.4427 43.9193 44.5377 43.9236L44.5387 43.9237C44.5717 43.9252 44.7264 43.9322 44.8739 43.8234C44.9644 43.7566 45.0344 43.6586 45.0646 43.5407C45.0923 43.4332 45.0788 43.3415 45.0645 43.2857C45.0385 43.1841 44.9873 43.1141 44.9699 43.0908C44.9454 43.0581 44.9203 43.031 44.9012 43.0118C44.8627 42.9727 44.818 42.9341 44.7749 42.8989C44.6868 42.8269 44.5684 42.7393 44.4288 42.6408C43.8693 42.2466 42.85 41.5958 41.6207 40.8571C39.2842 39.453 36.1283 37.6944 33.8464 36.7451C34.0386 33.8851 34.239 31.8534 34.4854 30.4889C34.6141 29.7764 34.7509 29.2723 34.8935 28.9355C35.0292 28.615 35.1377 28.5233 35.1755 28.5009C35.1859 28.5004 35.2351 28.4958 35.3433 28.514C35.4849 28.5378 35.6698 28.5904 35.8924 28.6716C36.3359 28.8334 36.8671 29.0856 37.3876 29.3569C37.9052 29.6267 38.3989 29.9082 38.7642 30.123C38.9465 30.2302 39.0962 30.3203 39.2 30.3835C39.2519 30.4151 39.2923 30.44 39.3195 30.4568L39.3503 30.4758L39.3579 30.4806L39.3597 30.4817L39.3601 30.4819L39.3601 30.4819L39.3601 30.482L39.3663 30.4857C46.4027 34.743 51.5411 38.7701 56.4961 46.063C61.467 53.3791 66.2651 63.9992 72.5647 81.4717L72.5867 81.5326L72.6234 81.5859C75.2098 85.3384 79.2725 90.0523 93.4439 105.368C91.5123 108.253 90.1723 110.689 89.1776 113.356C88.2986 115.713 87.6951 118.235 87.184 121.386C85.3482 117.615 82.8448 115.139 79.1847 112.663C77.1219 111.268 74.6859 109.869 71.7992 108.239C71.4251 108.028 71.0433 107.813 70.6536 107.593C68.0552 106.129 65.1037 104.465 61.7328 102.45C52.2237 88.5742 46.7347 82.1007 36.7403 77.4546C33.594 73.1757 32.3379 70.0615 30.762 64.4819ZM42.6395 69.8201C42.6396 69.8203 42.6374 69.8184 42.6336 69.8144C42.634 69.8148 42.6344 69.8151 42.6347 69.8155C42.638 69.8184 42.6395 69.82 42.6395 69.8201ZM44.6594 42.9363C44.6597 42.9364 44.6577 42.9359 44.6531 42.9344C44.6569 42.9354 44.6591 42.9361 44.6594 42.9363Z" fill="white" stroke="white"/>
<path d="M81.7503 164.686C81.9053 164.605 82.0899 164.501 82.2984 164.378C82.947 163.995 83.7916 163.443 84.6184 162.836C85.4482 162.226 86.2428 161.573 86.8023 160.989C87.0833 160.695 87.2886 160.435 87.4113 160.221C87.4722 160.115 87.5056 160.031 87.5212 159.971L81.7503 164.686ZM81.7503 164.686C81.7441 164.592 81.7387 164.487 81.7344 164.372C81.7147 163.848 81.7185 163.154 81.7554 162.431C81.7924 161.707 81.8618 160.968 81.9704 160.351C82.0248 160.042 82.0873 159.773 82.1571 159.556C82.2293 159.331 82.2986 159.196 82.3499 159.13C82.3789 159.093 82.4566 159.026 82.6262 158.957C82.7906 158.891 83.008 158.835 83.2711 158.798C83.7971 158.724 84.4492 158.729 85.0977 158.814C85.748 158.898 86.3628 159.059 86.8224 159.276C87.3097 159.505 87.4957 159.736 87.5313 159.888L81.7503 164.686ZM81.3304 164.879C81.3304 164.879 81.3312 164.879 81.3328 164.879C81.3311 164.879 81.3303 164.879 81.3304 164.879Z" fill="white" stroke="white"/>
<path d="M77.9227 157.468C76.9476 159.625 76.4516 161.047 76.0412 162.832C75.5117 161.673 74.8595 159.952 74.4164 158.281C74.1049 157.106 73.9086 155.997 73.9183 155.15C73.9232 154.726 73.9797 154.402 74.0742 154.178C74.1531 153.991 74.2484 153.893 74.3533 153.841C74.3627 153.845 74.3745 153.849 74.3886 153.856C74.4366 153.876 74.4987 153.91 74.5751 153.959C74.7288 154.058 74.9132 154.203 75.1212 154.387C75.5362 154.754 76.0061 155.243 76.4535 155.739C76.899 156.233 77.3139 156.724 77.6179 157.094C77.7391 157.241 77.8424 157.368 77.9227 157.468ZM74.3757 153.833C74.3756 153.833 74.374 153.833 74.3709 153.833C74.3742 153.833 74.3758 153.833 74.3757 153.833Z" fill="white" stroke="white"/>
<path d="M95.7821 143.659C95.1625 141.927 94.5999 139.899 94.5517 138.196L99.9934 141.648L100.263 141.819L100.531 141.647L106.391 137.888C112.147 147.976 115.145 155.656 116.654 163.319L116.656 163.326L116.657 163.333C118.671 172.206 116.063 178.434 111.445 182.242C106.795 186.077 100.038 187.517 93.6873 186.625C87.3367 185.734 81.4948 182.527 78.6097 177.196C75.7398 171.893 75.7211 164.345 81.2927 154.59C81.3156 154.562 81.338 154.535 81.36 154.509C81.486 154.36 81.5902 154.25 81.6743 154.169C81.6796 154.208 81.6845 154.251 81.6888 154.299C81.716 154.597 81.7165 155.02 81.6881 155.588C81.6842 155.664 81.6818 155.728 81.6797 155.783C81.6713 156.005 81.6685 156.079 81.5981 156.279C79.661 161.786 79.7682 167.238 81.55 171.397C83.3376 175.57 86.8198 178.442 91.5584 178.679L91.5709 178.679H91.5834H92.5318H92.5556L92.5794 178.677C99.4473 178.021 103.309 174.837 104.691 170.459C106.054 166.141 104.958 160.8 102.253 155.864C101.586 154.409 100.385 152.4 99.3366 150.687C99.1249 150.341 98.9196 150.008 98.7254 149.693C98.4324 149.217 98.1645 148.782 97.9379 148.407C97.7499 148.096 97.5938 147.832 97.4782 147.625C97.3545 147.404 97.2991 147.287 97.2869 147.251L97.2756 147.217L97.2598 147.185L97.2597 147.185L97.2597 147.185L97.2594 147.185L97.258 147.182L97.2519 147.169L97.2273 147.119C97.2055 147.074 97.1732 147.008 97.1321 146.921C97.0499 146.748 96.9323 146.495 96.7921 146.179C96.5115 145.546 96.1411 144.662 95.7821 143.659ZM81.8841 154.007C81.8841 154.007 81.8834 154.007 81.8822 154.007C81.8835 154.007 81.8841 154.007 81.8841 154.007Z" fill="white" stroke="white"/>
<path d="M79.2759 138.435C79.2433 138.392 79.216 138.355 79.1934 138.322C79.2326 138.29 79.2812 138.253 79.3404 138.212C79.5884 138.037 79.9577 137.819 80.4205 137.573C81.3419 137.082 82.5803 136.505 83.8299 135.965C85.0787 135.425 86.3273 134.928 87.2665 134.597C87.7385 134.43 88.12 134.31 88.3804 134.246C88.3903 134.244 88.3999 134.241 88.4093 134.239C88.4099 134.24 88.4105 134.241 88.4112 134.243C88.4818 134.371 88.5725 134.519 88.6744 134.677C88.8787 134.994 89.1409 135.367 89.4099 135.73C89.6788 136.093 89.9591 136.451 90.2005 136.737C90.3209 136.879 90.4355 137.007 90.5366 137.111C90.5367 137.111 90.5367 137.111 90.5368 137.111C90.4348 137.284 90.2743 137.522 90.0634 137.811C89.6016 138.446 88.9359 139.28 88.2312 140.115C87.5268 140.949 86.7906 141.777 86.1894 142.401C85.888 142.713 85.6268 142.968 85.424 143.145C85.3352 143.223 85.2637 143.28 85.2091 143.32C85.1625 143.3 85.1018 143.271 85.0261 143.231C84.8191 143.12 84.5458 142.948 84.2236 142.726C83.5818 142.284 82.7841 141.67 82.0039 141.022C81.2236 140.374 80.4712 139.702 79.9178 139.144C79.6399 138.865 79.4215 138.623 79.2759 138.435ZM88.6317 134.199C88.6316 134.199 88.6301 134.199 88.6273 134.199C88.6303 134.199 88.6317 134.199 88.6317 134.199ZM85.2923 143.349C85.2923 143.349 85.2905 143.349 85.2867 143.348C85.2903 143.348 85.2922 143.349 85.2923 143.349ZM79.1144 138.187C79.1137 138.185 79.1134 138.184 79.1134 138.184C79.1135 138.184 79.1139 138.185 79.1144 138.187Z" fill="white" stroke="white"/>
<path d="M75.9133 134.742C75.9128 134.742 75.912 134.741 75.9109 134.74C75.9188 134.746 75.92 134.748 75.9133 134.742ZM76.0814 134.551C75.9682 134.585 75.8743 134.612 75.7999 134.632C75.7638 134.595 75.7214 134.549 75.6726 134.496C75.4996 134.306 75.2669 134.035 74.993 133.705C74.4464 133.046 73.7484 132.167 73.0608 131.265C72.3725 130.362 71.6992 129.442 71.1998 128.699C70.9495 128.327 70.7481 128.007 70.6113 127.76C70.5952 127.731 70.5802 127.703 70.5664 127.677C70.5943 127.671 70.6243 127.665 70.6565 127.659C71.0219 127.59 71.5636 127.53 72.239 127.483C73.5837 127.39 75.3946 127.349 77.2386 127.356C79.0819 127.364 80.9472 127.419 82.3996 127.517C83.1269 127.566 83.7422 127.625 84.1961 127.692C84.4241 127.725 84.6009 127.76 84.7265 127.793C84.7894 127.809 84.8311 127.823 84.8559 127.834C84.8569 127.834 84.8579 127.834 84.8588 127.835C85.1983 128.136 85.5978 128.711 85.906 129.313C86.0602 129.615 86.1817 129.904 86.2566 130.143C86.2934 130.261 86.3165 130.359 86.3281 130.435C86.2693 130.474 86.1894 130.521 86.0864 130.578C85.7993 130.735 85.3844 130.935 84.8755 131.164C83.8608 131.619 82.5095 132.173 81.1455 132.707C79.7824 133.24 78.4131 133.751 77.3644 134.12C76.8392 134.305 76.3989 134.453 76.0814 134.551ZM70.284 127.759C70.284 127.759 70.2844 127.759 70.2854 127.758L70.284 127.759ZM84.8721 127.841C84.8721 127.841 84.8715 127.841 84.8704 127.84L84.8721 127.841Z" fill="white" stroke="white"/>
<path d="M67.3597 122.496C67.358 122.496 67.3566 122.495 67.3555 122.495C67.3463 122.486 67.3174 122.458 67.2686 122.396C67.2023 122.311 67.1206 122.192 67.0248 122.037C66.8338 121.728 66.6046 121.305 66.3515 120.797C65.8461 119.783 65.2598 118.459 64.7105 117.086C64.1611 115.713 63.6526 114.301 63.3002 113.113C63.1239 112.519 62.989 111.988 62.9071 111.549C62.8413 111.197 62.8155 110.934 62.8185 110.756C62.8874 110.748 62.9928 110.746 63.1437 110.76C63.5991 110.801 64.2734 110.965 65.1215 111.236C66.8055 111.776 69.0498 112.699 71.3298 113.73C73.6065 114.759 75.9035 115.888 77.6883 116.832C78.5813 117.304 79.3414 117.728 79.9049 118.068C80.1871 118.239 80.4147 118.385 80.5829 118.504C80.6671 118.563 80.7322 118.613 80.7799 118.652C80.827 118.692 80.8451 118.712 80.8472 118.714C80.8474 118.714 80.8475 118.714 80.8474 118.714C81.2775 119.25 81.9676 120.588 82.5658 121.919C82.8598 122.573 83.1229 123.206 83.3114 123.708C83.382 123.897 83.441 124.064 83.4868 124.205C83.4555 124.206 83.4223 124.207 83.3872 124.208C82.9661 124.218 82.3508 124.2 81.5943 124.16C80.0854 124.079 78.0579 123.909 75.996 123.701C73.9347 123.493 71.8461 123.248 70.2159 123.019C69.4001 122.904 68.7043 122.794 68.1861 122.695C67.9264 122.645 67.7177 122.6 67.5637 122.559C67.44 122.526 67.3798 122.504 67.3597 122.496Z" fill="white" stroke="white"/>
<path d="M121.505 138.33C121.535 138.291 121.56 138.256 121.582 138.225C121.544 138.195 121.498 138.16 121.442 138.121C121.197 137.949 120.831 137.734 120.373 137.491C119.461 137.007 118.235 136.438 116.998 135.905C115.761 135.373 114.525 134.883 113.595 134.556C113.128 134.392 112.75 134.273 112.493 134.21C112.484 134.208 112.475 134.206 112.467 134.204C112.397 134.331 112.307 134.477 112.206 134.633C112.004 134.945 111.744 135.314 111.478 135.672C111.211 136.03 110.934 136.384 110.695 136.665C110.577 136.804 110.465 136.929 110.366 137.03C110.466 137.2 110.624 137.432 110.831 137.715C111.288 138.341 111.947 139.163 112.644 139.987C113.342 140.81 114.071 141.626 114.666 142.241C114.964 142.549 115.223 142.8 115.423 142.975C115.51 143.051 115.58 143.107 115.634 143.146C115.68 143.126 115.739 143.098 115.813 143.059C116.018 142.95 116.288 142.78 116.607 142.561C117.242 142.125 118.032 141.519 118.804 140.881C119.577 140.242 120.322 139.579 120.87 139.029C121.145 138.753 121.361 138.516 121.505 138.33ZM112.245 134.164C112.245 134.164 112.246 134.164 112.249 134.164C112.246 134.164 112.245 134.164 112.245 134.164ZM115.55 143.175C115.55 143.175 115.552 143.175 115.556 143.174C115.552 143.174 115.55 143.175 115.55 143.175ZM121.663 138.088C121.664 138.086 121.664 138.085 121.664 138.085C121.664 138.085 121.664 138.086 121.663 138.088Z" fill="white" stroke="white"/>
<path d="M124.99 134.669C124.991 134.668 124.992 134.668 124.993 134.667C124.985 134.673 124.984 134.674 124.99 134.669ZM124.823 134.477C124.936 134.511 125.029 134.539 125.104 134.558C125.14 134.521 125.183 134.475 125.231 134.422C125.404 134.231 125.637 133.959 125.911 133.628C126.458 132.966 127.157 132.085 127.845 131.18C128.534 130.274 129.208 129.35 129.707 128.605C129.958 128.232 130.159 127.91 130.297 127.663C130.313 127.632 130.329 127.604 130.343 127.577C130.314 127.571 130.284 127.565 130.251 127.558C129.885 127.489 129.343 127.429 128.667 127.382C127.322 127.288 125.51 127.247 123.664 127.255C121.82 127.262 119.953 127.318 118.5 127.416C117.772 127.465 117.156 127.524 116.702 127.591C116.474 127.625 116.297 127.659 116.171 127.693C116.108 127.709 116.067 127.723 116.042 127.734C116.041 127.734 116.04 127.734 116.039 127.735C115.699 128.037 115.299 128.614 114.991 129.219C114.836 129.521 114.715 129.812 114.64 130.052C114.602 130.171 114.579 130.27 114.568 130.347C114.627 130.385 114.707 130.433 114.81 130.49C115.098 130.648 115.513 130.849 116.022 131.078C117.038 131.536 118.39 132.091 119.755 132.627C121.119 133.162 122.489 133.674 123.539 134.045C124.064 134.23 124.505 134.379 124.823 134.477ZM130.624 127.659C130.624 127.659 130.623 127.658 130.622 127.658L130.624 127.659ZM116.026 127.741C116.026 127.741 116.026 127.741 116.027 127.74L116.026 127.741Z" fill="white" stroke="white"/>
<path d="M133.514 122.387C133.515 122.386 133.517 122.386 133.518 122.385C133.527 122.377 133.556 122.348 133.606 122.285C133.673 122.2 133.755 122.08 133.851 121.924C134.044 121.613 134.274 121.189 134.529 120.678C135.038 119.659 135.627 118.327 136.18 116.948C136.733 115.567 137.245 114.149 137.599 112.954C137.776 112.357 137.912 111.823 137.995 111.383C138.061 111.027 138.087 110.762 138.084 110.582C138.014 110.575 137.907 110.572 137.753 110.586C137.295 110.628 136.616 110.792 135.763 111.065C134.068 111.607 131.81 112.536 129.516 113.572C127.225 114.606 124.914 115.74 123.118 116.689C122.22 117.164 121.455 117.59 120.888 117.932C120.604 118.103 120.375 118.25 120.206 118.37C120.121 118.43 120.055 118.479 120.007 118.52C119.959 118.559 119.941 118.58 119.939 118.582C119.939 118.582 119.939 118.582 119.939 118.582C119.506 119.121 118.811 120.466 118.21 121.803C117.914 122.461 117.649 123.097 117.459 123.602C117.388 123.793 117.328 123.962 117.282 124.104C117.314 124.106 117.349 124.107 117.386 124.108C117.81 124.118 118.429 124.1 119.19 124.059C120.708 123.978 122.748 123.807 124.823 123.598C126.897 123.389 128.998 123.143 130.639 122.913C131.459 122.797 132.159 122.686 132.681 122.587C132.942 122.537 133.152 122.491 133.307 122.45C133.433 122.417 133.494 122.394 133.514 122.387Z" fill="white" stroke="white"/>
<path d="M88.9852 123.801L88.4881 123.748L88.9852 123.801C89.4287 119.7 91.3628 116.328 93.7231 112.803C93.7511 112.824 93.7803 112.845 93.8109 112.867C94.1395 113.107 94.6203 113.462 95.2273 113.921C96.4413 114.839 98.1598 116.173 100.175 117.832L100.499 118.099L100.818 117.826C103.182 115.8 104.687 114.631 107.077 112.785C107.956 113.885 109.086 115.747 110.05 117.752C111.13 119.999 111.949 122.322 112.008 123.876V125.293C112.008 125.29 112.007 125.316 111.993 125.387C111.981 125.452 111.961 125.537 111.934 125.642C111.879 125.851 111.797 126.122 111.691 126.442C111.48 127.082 111.179 127.901 110.825 128.777C110.12 130.526 109.222 132.462 108.424 133.668C106.848 135.462 105.039 136.724 100.248 139.575C98.1822 138.387 96.4525 137.219 95.1726 136.253C94.5063 135.75 93.9653 135.304 93.5638 134.94C93.1501 134.566 92.9172 134.308 92.8329 134.177C91.6643 132.366 90.7267 130.432 90.0664 128.833C89.3981 127.214 89.0356 125.99 88.9842 125.587L88.9839 125.584C88.8871 124.853 88.9105 124.492 88.9852 123.801Z" fill="white" stroke="white"/>
<path d="M88.5554 117.957C88.8589 116.384 89.2723 114.877 89.8366 113.329C90.9359 110.315 92.6145 107.127 95.1968 102.977C96.8448 105.047 98.0162 106.195 100.226 107.64L100.513 107.828L100.791 107.627C103.113 105.954 104.254 104.753 105.592 102.713C109.225 108.997 111.139 113.13 112.119 117.235C111.992 116.952 111.859 116.674 111.719 116.4C110.751 114.501 109.456 112.795 107.516 110.797L107.229 110.501L106.884 110.726C104.366 112.37 102.907 113.55 100.509 115.592C98.3978 113.702 96.8249 112.59 93.8703 110.722L93.526 110.504L93.2432 110.798C90.9543 113.172 89.6328 115.226 88.5554 117.957Z" fill="white" stroke="white"/>
<path d="M103.36 101.621C104.224 100.712 104.868 99.9588 105.473 99.1577C105.086 100.202 104.666 101.096 104.167 101.909C103.289 103.342 102.155 104.549 100.49 105.88C98.2268 104.201 96.9472 102.812 96.1402 101.371C95.6529 100.501 95.3295 99.5986 95.0721 98.5735C95.95 99.8689 96.6144 100.752 97.3956 101.613L98.1387 102.432L98.2627 101.333C98.7494 97.0194 98.274 94.224 96.63 89.0428C98.3214 84.4693 99.228 80.9435 100.417 74.8567C101.844 81.2172 102.802 84.7474 104.367 89.0298C102.652 93.7004 102.163 96.4309 102.499 101.311L102.577 102.444L103.36 101.621Z" fill="white" stroke="white"/>
<path d="M105.567 90.4807C106.343 88.1312 107.377 85.5705 108.629 83.3396C107.951 90.7449 106.761 94.8008 103.912 98.7695L103.972 97.1385C104.029 96.0747 104.576 93.4828 105.567 90.4807Z" fill="white" stroke="white"/>
<path d="M95.6327 91.2088C96.3615 93.5186 96.7212 95.7888 96.7848 98.4841C94.1724 94.4944 92.8833 90.2955 92.351 83.8658C93.856 86.652 94.9219 88.9558 95.6327 91.2088Z" fill="white" stroke="white"/>
<path d="M148.668 51.8243C148.668 51.8243 157.033 43.7368 159.24 43.7363C161.446 43.7359 159.705 54.9168 159.705 54.9168C154.658 60.0699 153.051 61.8754 153.083 62.5291C153.796 68.9978 153.842 72.5087 152.269 78.2293" stroke="#00C2FF" stroke-width="0.7"/>
<path d="M52.4692 51.8194C52.4692 51.8194 43.9079 43.7348 41.6496 43.7344C39.3914 43.7339 41.174 54.9107 41.174 54.9107C46.3394 60.0618 47.9835 61.8666 47.9511 62.5201C47.2213 68.9864 47.1742 72.496 48.7834 78.2144" stroke="#00C2FF" stroke-width="0.7"/>
<defs>
<radialGradient id="paint0_radial" cx="0" cy="0" r="1" gradientUnits="userSpaceOnUse" gradientTransform="translate(100 100) scale(100)">
<stop offset="0.328125" stop-color="#00F1FF"/>
<stop offset="0.484375" stop-color="#00D8FF"/>
<stop offset="0.760417" stop-color="#00C0FF"/>
<stop offset="0.880208" stop-color="#00B2FF"/>
<stop offset="1" stop-color="#00ADFF"/>
</radialGradient>
</defs>
</svg>
