<svg width="200" height="200" viewBox="0 0 200 200" fill="none" xmlns="http://www.w3.org/2000/svg">
<path d="M200 100C200 155.229 155.229 200 100 200C44.7708 200 0 155.229 0 100C0 44.7708 44.7708 0 100 0C155.229 0 200 44.7708 200 100Z" fill="url(#paint0_radial)"/>
<path d="M31 109.797C45.8948 212.484 153.137 215.638 169.259 109.797C159.621 142.04 138.943 163.418 105.824 178.313C101.132 178.831 98.4763 178.784 93.7333 178.313C59.0372 160.965 41.8644 143.091 31 109.797Z" fill="white"/>
<path d="M142.974 135.206L141.046 131.176C147.354 121.888 151.911 104.715 150.684 86.8418C157.478 75.4838 159.841 67.5974 161.899 51.2695C168.733 77.9049 166.455 110.673 142.974 135.206Z" fill="white"/>
<path d="M137.191 140.813C136.658 139.947 136.327 139.459 135.614 138.535C133.279 141.024 131.233 142.741 129.13 145.895C131.759 144.669 134.099 142.952 137.191 140.813Z" fill="white"/>
<path d="M59.3877 131.351C58.4605 132.83 58.0024 133.705 57.2849 135.381C42.3901 120.662 28.5467 87.7179 38.535 51.2695C40.5486 67.4398 42.7027 75.5197 49.7499 86.8418C49.2276 106.389 51.0207 116.257 59.3877 131.351Z" fill="white"/>
<path d="M64.9951 139.236C64.4881 139.939 64.2278 140.371 63.7685 141.164C66.4903 143.445 68.0378 144.622 71.1283 145.369C68.4041 142.77 66.9227 141.69 64.9951 139.236Z" fill="white"/>
<path d="M100.212 81.9375C90.2279 83.8651 85.3217 95.9561 92.5021 102.965C81.291 111.377 65.3477 107.171 53.2568 99.2855C52.731 112.428 64.8221 118.912 79.7156 113.83C60.2661 124.519 53.6065 139.764 57.2858 150.629C65.0607 136.405 70.2543 128.725 81.291 116.809C72.0054 131.528 73.0571 155.886 83.5691 170.43C81.4663 152.206 82.5177 136.435 86.7237 125.57C81.0577 150.123 81.8172 170.956 96.8872 177.111C96.8872 177.111 97.2377 177.287 97.5882 177.111C97.8858 176.973 97.8858 176.676 97.8858 176.676C98.093 173.457 95.2545 167.39 94.6087 156.411C96.4679 164.49 97.5704 168.936 100.391 175.687C103.37 169.473 104.305 164.827 105.942 156.695L105.999 156.411C105.999 164.65 103.055 171.805 102.995 176.563C102.995 176.563 102.995 176.911 103.196 177.111C103.371 177.287 103.729 177.134 104.072 176.973C120.115 169.446 118.275 150.448 114.41 125.57C118.307 139.594 119.492 149.402 117.214 170.956C128.429 156.411 128.078 129.776 119.492 116.809C129.13 126.447 135.613 136.61 143.674 150.979C145.601 137.837 141.746 126.271 121.244 113.83C136.84 120.138 148.405 109.975 147.179 99.4608C132.108 109.624 117.038 109.799 108.273 102.965C115.461 97.0075 111.081 84.2155 100.212 81.9375Z" fill="white"/>
<path d="M104.597 66.5203C101.43 67.2247 99.634 67.2176 96.3611 66.5203V63.7165C99.6341 64.3236 101.477 64.3555 104.597 63.7165V66.5203Z" fill="white"/>
<path d="M104.597 62.8404C101.483 63.5058 99.6778 63.545 96.3611 62.8404C96.385 59.3803 96.069 57.9355 95.3097 55.6523C93.3822 51.4467 91.6299 51.2715 84.4453 53.199C84.4453 48.8182 88.3004 43.7365 89.5271 43.5649C90.228 43.386 92.8339 45.9381 94.784 47.942L98.1135 45.3136C98.1369 43.6312 97.8577 42.7758 97.2373 41.2832C98.4099 40.6843 98.8539 40.313 99.1649 39.5309C99.6906 37.0776 97.8186 37.0405 97.2373 37.4281C96.7116 37.7786 96.711 38.0367 96.7116 38.4795L97.4125 37.9538C98.1135 37.6033 98.8144 38.129 98.6392 38.8299C97.4125 41.4584 94.2583 41.108 94.0831 37.2529C94.0831 32.6968 98.2887 32.434 100.216 34.2739C100.682 34.7182 100.917 35.6758 102.144 36.3767C101.361 38.3795 101.147 39.7006 101.268 42.5098L101.268 42.5073C101.847 39.6679 102.171 38.0771 103.02 36.7308C104.948 36.2015 105.625 33.9572 105.298 33.0473C105.087 32.4609 104.391 32.158 103.546 32.1711C103.06 32.1786 102.793 32.2338 102.319 32.3463L102.757 32.434L103.195 32.5216C104.498 32.6227 104.934 32.9899 104.772 33.7479C104.071 37.6061 100.391 35.851 100.391 31.9987C100.391 26.2102 108.277 27.79 107.926 31.6482V32.1739C106.92 33.8475 106.501 34.858 107.401 36.9052C105.382 39.0705 104.636 40.5767 103.721 43.5649C105.227 40.6317 106.103 39.2418 107.751 37.6061C110.029 38.8328 111.606 36.9052 110.205 34.9776C109.9 34.6781 109.696 34.5973 109.338 34.4556L109.328 34.4519C109.474 34.7948 109.571 34.9836 109.854 35.3281C111.081 36.73 109.504 38.1318 108.102 36.7308C106.349 34.2767 109.504 30.7731 110.555 30.9481C112.658 31.4738 116.338 38.6584 113.183 39.1841C111.371 39.4351 110.938 39.9832 110.38 41.1116C108.157 43.2919 107.243 44.5227 105.648 46.7191C107.08 45.18 107.914 44.3599 109.504 43.0392C110.555 46.5438 115.286 46.1934 113.183 41.6373C114.235 45.4924 110.905 45.3177 110.73 43.5649C110.555 40.7617 111.401 39.5858 114.41 39.7097C116.338 39.7097 117.039 47.588 116.162 48.1173L114.585 48.2961C107.05 49.1687 104.422 54.7761 104.597 62.8404Z" fill="white"/>
<path d="M100.389 81.0622C92.6792 83.6907 89.33 86.4968 88.6468 95.256C85.8425 95.0011 83.2156 94.5175 80.7634 93.8337L81.99 87.721L79.712 93.525C77.9216 92.9725 76.228 92.311 74.6303 91.5521L76.0321 87.1953L73.4036 90.9407C71.1597 89.7685 69.1165 88.398 67.2705 86.8651L70.2494 82.6393L66.3122 86.0391C64.0319 83.9992 62.0756 81.702 60.4364 79.2227L64.9925 75.4547L59.713 78.0832C58.1971 75.5955 56.986 72.9432 56.073 70.1977L59.7355 69.3216L55.7393 69.1464C54.6702 65.6123 54.0856 61.9413 53.9715 58.2819L58.3336 60.3847L53.9517 57.2305C53.9261 53.345 54.4305 49.4888 55.448 45.8404L59.5602 49.5203L55.7573 44.789C56.7125 41.7036 58.0421 38.7828 59.7355 36.1386L63.2401 43.2119L60.3938 35.1512C62.155 32.6129 64.2691 30.3575 66.726 28.4924L67.2705 38.3054L67.9483 27.6162C70.8985 25.6219 74.299 24.1658 78.1345 23.4106C67.0952 51.4478 79.0111 66.8683 94.2563 71.5996L96.0086 67.2188C99.5606 67.8271 101.458 67.9445 104.77 67.2188L106.523 71.5996C121.067 67.2188 133.745 51.9778 122.644 23.4106C126.582 24.0707 130.103 25.5982 133.158 27.7775L133.684 39.3568L134.209 28.5676C136.485 30.3673 138.479 32.5411 140.167 34.9895L137.364 43.7376L140.868 36.0492C142.569 38.7297 143.921 41.7039 144.899 44.8526L140.868 49.6955L145.249 46.0469C146.225 49.5751 146.738 53.2983 146.752 57.0553L141.744 60.9104L146.738 58.2819C146.645 61.9374 146.076 65.6082 144.997 69.1464L141.394 69.4968L144.723 70.0077C143.789 72.8355 142.522 75.5698 140.906 78.1335L135.962 75.4547L140.343 79C138.644 81.5286 136.593 83.8773 134.172 85.9687L130.705 82.8145L133.333 86.6705C131.492 88.1634 129.45 89.5127 127.2 90.6877L124.572 86.6696L126.149 91.2166C124.555 91.9885 122.862 92.6755 121.067 93.2675L118.614 86.4944L120.016 93.5999C117.62 94.3246 115.051 94.8841 112.303 95.256C111.374 88.5527 109.448 84.0923 100.389 81.0622Z" fill="white"/>
<path d="M130.88 14.9995C125.272 12.5453 119.49 12.5448 116.336 13.9481C119.081 17.0928 120.72 19.1773 122.469 23.0602C125.823 23.6083 127.485 23.3633 132.983 26.74C132.298 21.74 131.859 19.2 130.88 14.9995Z" fill="white"/>
<path d="M142.796 23.0602C140.518 20.2551 136.312 16.7504 131.931 15.3499C132.692 19.8099 133.169 22.4818 133.684 27.0905C136.826 29.5366 138.278 31.1239 140.518 34.2751C141.628 30.2884 142.124 27.8345 142.796 23.0602Z" fill="white"/>
<path d="M152.258 36.7269C149.829 30.5886 147.864 27.7448 143.497 23.5845C142.802 28.0037 142.331 30.4742 141.043 34.7994C143.553 38.5812 144.516 40.6418 145.775 44.2619C148.185 41.2156 149.585 39.5478 152.258 36.7269Z" fill="white"/>
<path d="M152.609 37.9536C150.126 40.6872 148.687 42.2414 145.95 45.1381C147.404 49.3411 147.802 51.8843 147.878 56.7034C151.181 54.4348 152.94 53.2923 155.938 51.4465C155.701 45.8021 154.92 42.7665 152.609 37.9536Z" fill="white"/>
<path d="M155.938 52.6731C152.965 54.632 151.232 55.7483 147.878 57.7548C147.827 62.2633 147.391 64.7526 146.125 69.1464H155.237C156.437 62.4616 156.741 58.8137 155.938 52.6731Z" fill="white"/>
<path d="M154.536 70.1963C151.117 70.2874 149.235 70.3057 145.95 70.1963C144.611 73.5237 143.648 75.356 141.744 78.6075L149.805 82.6379C152.585 78.1164 153.79 75.4544 154.536 70.1963Z" fill="white"/>
<path d="M141.394 79.6589C139.039 82.5506 137.579 84.076 134.735 86.6705L141.394 93.8528C145.016 90.4308 146.827 88.3417 149.104 83.8645L141.394 79.6589Z" fill="white"/>
<path d="M140.343 94.7289C138.106 91.8892 136.701 90.2679 134.034 87.3691C131.537 89.2823 130.039 90.1572 127.375 91.5747C129.461 95.0671 130.497 96.9529 132.107 100.161C135.086 99.285 137.364 97.7079 140.343 94.7289Z" fill="white"/>
<path d="M126.674 92.1004C124.598 93.1015 123.392 93.6214 121.067 94.3785C122.274 97.8949 122.913 99.8875 123.871 103.491C126.763 103.205 128.322 102.576 131.055 100.862C129.496 97.4806 128.546 95.5617 126.674 92.1004Z" fill="white"/>
<path d="M120.366 94.5537C117.393 95.4651 115.495 95.6623 112.303 95.9556C112.19 99.1666 112.244 101.028 112.481 104.367C116.468 104.756 118.964 104.717 122.819 103.666C121.974 100.001 121.599 98.1496 120.366 94.5537Z" fill="white"/>
<path d="M88.4736 95.7803C85.4452 95.6698 83.6818 95.4061 80.4129 94.5537C79.6633 98.16 79.0982 100.157 77.7844 103.666C82.1936 104.871 87.9479 105.068 88.2984 104.192C88.6468 103.841 88.6229 99.4654 88.4736 95.7803Z" fill="white"/>
<path d="M79.5368 94.3785C77.1768 93.585 75.9637 93.0742 74.1046 92.1004C72.4363 95.6983 71.432 97.5633 69.5485 100.687C71.4761 102.264 75.6817 103.841 76.733 103.491C77.0835 103.315 78.6475 98.0053 79.5368 94.3785Z" fill="white"/>
<path d="M66.7448 87.3691C64.1329 90.3609 62.7754 92.0052 60.4364 94.9042C63.3248 97.3447 64.9731 98.6694 68.4971 100.336C70.6965 97.2673 71.7049 95.3605 73.2284 91.75C70.6708 90.3753 69.225 89.4013 66.7448 87.3691Z" fill="white"/>
<path d="M59.385 79.8341C56.3142 81.2831 54.628 82.1705 51.6748 83.8645C54.0447 88.26 55.6435 90.5446 59.385 94.028C62.1626 91.1964 63.6413 89.5915 65.8686 86.6682C62.8512 84.1435 61.5138 82.625 59.385 79.8341Z" fill="white"/>
<path d="M54.829 70.1977C51.8226 70.3264 50.0026 70.3761 46.2426 70.3716C47.433 75.281 48.3241 77.9979 50.9738 82.6393C54.2167 81.2572 55.9507 80.3841 58.8593 78.6075C56.9359 75.3196 56.0811 73.4826 54.829 70.1977Z" fill="white"/>
<path d="M52.9014 57.7548C49.6744 55.6881 47.895 54.5895 44.8407 52.8483C44.2423 59.1086 44.346 62.4732 45.8921 68.7945L54.4785 69.1464C53.4472 64.8686 53.083 62.382 52.9014 57.7548Z" fill="white"/>
<path d="M54.6537 45.1381C52.0805 42.4459 50.6677 40.8042 48.1701 37.7783C46.101 42.6099 45.2349 45.4891 44.8407 51.2712C48.0945 53.3453 49.8068 54.4505 52.7262 56.353C53.2059 51.7966 53.579 49.3102 54.6537 45.1381Z" fill="white"/>
<path d="M55.0042 43.9115C52.5254 40.98 51.0948 39.3215 48.5206 36.3765C51.1651 30.539 52.9854 27.6981 57.107 23.7597C57.8387 28.1797 58.3138 30.652 59.5602 34.9746C57.3242 38.1371 56.4187 40.1603 55.0042 43.9115Z" fill="white"/>
<path d="M60.3938 33.748C59.138 29.5104 58.6458 27.1331 57.9832 22.8835C61.4655 19.021 63.9586 17.6283 68.6723 15.5238C67.7485 19.9395 67.2896 22.4498 66.726 27.0891C64.0968 29.3371 62.7463 30.8783 60.3938 33.748Z" fill="white"/>
<path d="M69.8991 14.9981L68.1466 26.213C71.8121 24.1803 74.0625 23.515 78.3101 22.8835C80.4737 18.4042 82.2362 16.3685 84.9691 13.7707C79.3004 12.4887 75.3416 12.9389 69.8991 14.9981Z" fill="white"/>
<defs>
<radialGradient id="paint0_radial" cx="0" cy="0" r="1" gradientUnits="userSpaceOnUse" gradientTransform="translate(100 100) scale(100)">
<stop offset="0.328125" stop-color="#00F1FF"/>
<stop offset="0.484375" stop-color="#00D8FF"/>
<stop offset="0.760417" stop-color="#00C0FF"/>
<stop offset="0.880208" stop-color="#00B2FF"/>
<stop offset="1" stop-color="#00ADFF"/>
</radialGradient>
</defs>
</svg>
