<svg id="Capa_1" enable-background="new 0 0 509.994 509.994" height="512" viewBox="0 0 509.994 509.994" width="512" xmlns="http://www.w3.org/2000/svg" xmlns:xlink="http://www.w3.org/1999/xlink"><linearGradient id="lg1"><stop offset="0" stop-color="#99e6fc"/><stop offset=".5194" stop-color="#01d0fb"/><stop offset="1" stop-color="#4f66d0"/></linearGradient><linearGradient id="SVGID_1_" gradientUnits="userSpaceOnUse" x1="-24.454" x2="590.397" xlink:href="#lg1" y1="254.997" y2="254.997"/><linearGradient id="SVGID_2_" gradientUnits="userSpaceOnUse" x1="19.617" x2="297.224" xlink:href="#lg1" y1="410.156" y2="410.156"/><linearGradient id="SVGID_3_" gradientUnits="userSpaceOnUse" x1="-81.848" x2="486.805" xlink:href="#lg1" y1="169.637" y2="169.637"/><linearGradient id="lg2"><stop offset="0" stop-color="#fff3be"/><stop offset=".5725" stop-color="#ffd15b"/><stop offset="1" stop-color="#eca026"/></linearGradient><linearGradient id="SVGID_4_" gradientUnits="userSpaceOnUse" x1="94.547" x2="218.969" xlink:href="#lg2" y1="353.212" y2="353.212"/><linearGradient id="lg3"><stop offset="0" stop-color="#fecec8"/><stop offset=".5725" stop-color="#fe73c5"/><stop offset="1" stop-color="#f1239a"/></linearGradient><linearGradient id="SVGID_5_" gradientUnits="userSpaceOnUse" x1="121.997" x2="328.122" xlink:href="#lg3" y1="286.95" y2="286.95"/><linearGradient id="SVGID_6_" gradientUnits="userSpaceOnUse" x1="-7.297" x2="166.602" xlink:href="#lg3" y1="438.039" y2="438.039"/><linearGradient id="SVGID_7_" gradientUnits="userSpaceOnUse" x1="110.621" x2="590.604" xlink:href="#lg3" y1="169.612" y2="169.612"/><linearGradient id="SVGID_8_" gradientUnits="userSpaceOnUse" x1="143.33" x2="438.169" xlink:href="#lg3" y1="176.451" y2="176.451"/><linearGradient id="SVGID_9_" gradientUnits="userSpaceOnUse" x1="35.997" x2="512.421" xlink:href="#lg3" y1="169.612" y2="169.612"/><linearGradient id="SVGID_10_" gradientUnits="userSpaceOnUse" x1="229.115" x2="426.889" xlink:href="#lg2" y1="176.451" y2="176.451"/><linearGradient id="SVGID_11_" gradientUnits="userSpaceOnUse" x1="181.117" x2="382.56" xlink:href="#lg2" y1="208.816" y2="208.816"/><linearGradient id="SVGID_12_" gradientUnits="userSpaceOnUse" x1="140.663" x2="266.002" xlink:href="#lg3" y1="347.824" y2="347.824"/><linearGradient id="SVGID_13_" gradientUnits="userSpaceOnUse" x1="61.33" x2="211.713" xlink:href="#lg2" y1="392.058" y2="392.058"/><linearGradient id="SVGID_14_" gradientUnits="userSpaceOnUse" x1="-58.67" x2="138.944" xlink:href="#lg3" y1="490.335" y2="490.335"/><g><path d="m460.307 49.663c-66.17-66.18-173.7-66.19-239.89-.02-43.77 43.76-58.63 105.48-44.58 161.43 5.43 21.65 1.31 45.674-16.84 58.674l-12.223 4.578-110.797 79.408c-5.171 3.706-9.796 7.86-13.868 12.368-29.983 33.189-27.079 82.605 6.043 115.718 16.97 16.97 36.076 28.154 57.976 28.154 20.828 0 41.559-7.494 57.741-22.113 4.508-4.072 8.663-8.697 12.369-13.867l41.973-58.57 5.786-17.426 14.972-11.541 16.671-23.263 3.607-11.946c12.97-18.1 37.92-22.584 59.52-17.144 55.98 14.1 117.75-.75 161.54-44.54 66.25-66.24 66.25-173.65 0-239.9zm-383.66 413.27c-15.25 0-29.61-14.36-29.61-29.61 0-7.625 5.09-14.527 10.086-19.524s11.899-8.086 19.524-8.086c15.25 0 27.61 12.36 27.61 27.61 0 7.624-3.089 14.526-8.084 19.522-4.997 4.997-11.9 10.088-19.526 10.088z" fill="url(#SVGID_1_)"/><path d="m258.743 334.101c-21.598-5.44-44.323 2.863-57.298 20.966l-82.887 115.653s3.699 5.32 9.439 9.611c7.05 5.271 15.87 7.528 15.87 7.528 4.507-4.072 8.661-8.697 12.366-13.867l41.976-58.569 5.788-17.425 14.972-11.541 16.672-23.262 3.606-11.947c6.427-8.968 17.468-11.707 27.359-15.386-2.631-.532-5.255-1.105-7.863-1.761z" fill="url(#SVGID_2_)"/><path d="m460.311 49.661c-38.183-38.185-90.133-54.336-139.966-48.461 36.644 4.32 72.143 20.549 100.18 48.694 64.767 65.016 65.84 170.786 2.342 237.041-12.115 12.641-25.693 22.985-40.2 31.039-81.398-45.001-164.971-134.289-196.924-214.099-.021-.052-.041-.103-.062-.155-.283-.707-.529-1.423-.756-2.142-8.066 18.442-12.693 38.02-13.882 57.771 38.028 58.686 96.533 115.921 155.318 151.51 11.921 7.217 8.153 25.494-5.683 27.156-.134.016-.267.032-.401.048 49.605 5.88 101.309-10.104 139.499-47.963 66.469-65.894 66.717-174.257.535-240.439z" fill="url(#SVGID_3_)"/><path d="m198.209 415.422 20.76-28.966c-19.451-10.902-37.75-24.619-54.293-41.163s-30.261-34.842-41.163-54.293l-28.966 20.76c12.129 20.943 27.137 40.676 45.061 58.6 17.925 17.925 37.658 32.934 58.601 45.062z" fill="url(#SVGID_4_)"/><path d="m220.402 289.567c-22.589-22.589-37.468-49.964-44.653-78.861.03.123.056.246.086.369 5.435 21.65-2.792 44.427-20.935 57.431l-8.125 5.823c9.892 18.269 22.543 35.44 37.984 50.881s32.612 28.092 50.881 37.984l5.825-8.128c12.974-18.103 35.7-26.405 57.298-20.966.139.035.279.064.418.098-28.866-7.192-56.211-22.064-78.779-44.631z" fill="url(#SVGID_5_)"/><path d="m96.171 452.844c-4.997 4.997-11.9 8.089-19.525 8.089-15.248 0-27.61-12.361-27.61-27.61 0-7.625 3.091-14.528 8.089-19.525-13.086-15.154-24.753-31.11-35.009-47.69-29.985 33.188-29.995 85.499 3.125 118.62 33.12 33.12 85.432 33.111 118.62 3.125-16.58-10.257-32.536-21.924-47.69-35.009z" fill="url(#SVGID_6_)"/><path d="m504.574 235.505c3.802 9.455 3.08 20.16-2.071 28.953-7.94 13.554-17.724 26.324-29.355 37.946-11.624 11.624-24.388 21.404-37.933 29.341-8.785 5.147-19.476 5.88-28.93 2.099l-.192-.077c-90.668-36.301-193.592-139.224-229.893-229.893-.021-.052-.041-.103-.062-.155-3.684-9.199-2.645-19.612 2.648-27.989 7.6-12.028 19.244-29.378 28.777-38.911 11.614-11.623 24.375-21.402 37.919-29.339 8.789-5.151 19.487-5.883 28.946-2.1l.189.076c90.668 36.301 193.592 139.224 229.893 229.893z" fill="url(#SVGID_7_)"/><path d="m378.206 134-10.377 30.601 19.326 25.897c10.218 13.692.3 33.157-16.783 32.938l-32.31-.413-18.657 26.382c-9.864 13.949-31.441 10.531-36.512-5.783l-9.592-30.857-30.857-9.592c-16.314-5.071-19.732-26.648-5.783-36.512l26.382-18.657-.413-32.31c-.218-17.083 19.246-27.001 32.938-16.783l25.897 19.326 30.601-10.377c16.18-5.487 31.627 9.961 26.14 26.14z" fill="url(#SVGID_8_)"/><path d="m504.574 235.505-.062-.155c-36.301-90.668-139.225-193.592-229.893-229.893l-.189-.076c-9.459-3.783-20.157-3.051-28.946 2.1-.836.49-1.659 1.008-2.489 1.512 88.539 39.083 186.313 138.475 221.497 226.356l.062.155c3.802 9.455 3.08 20.16-2.071 28.953-7.94 13.554-17.724 26.324-29.355 37.946-10.904 10.904-22.821 20.164-35.436 27.824 2.81 1.241 5.612 2.422 8.401 3.539l.192.077c9.454 3.781 20.145 3.048 28.93-2.099 13.546-7.937 26.31-17.717 37.933-29.341 11.63-11.622 21.415-24.392 29.355-37.946 5.151-8.792 5.873-19.497 2.071-28.952z" fill="url(#SVGID_9_)"/><g><path d="m402.134 134-10.377 30.601 19.326 25.897c10.218 13.692.3 33.157-16.783 32.938l-32.31-.413-18.657 26.382c-9.864 13.949-31.441 10.531-36.512-5.783l-9.592-30.857-30.857-9.592c-16.314-5.071-19.732-26.648-5.783-36.512l26.382-18.657-.413-32.31c-.218-17.083 19.246-27.001 32.938-16.783l25.897 19.326 30.601-10.377c16.179-5.487 31.627 9.961 26.14 26.14z" fill="url(#SVGID_10_)"/><path d="m411.082 190.498-11.739-15.731c-.006.006-.011.011-.016.017-32.192 32.192-84.385 32.192-116.577 0-4.705-4.705-8.717-9.84-12.047-15.275l-10.115 7.153c-13.949 9.864-10.531 31.441 5.783 36.512l30.857 9.592 9.592 30.856c5.071 16.314 26.648 19.732 36.512 5.783l18.657-26.382 32.31.413c17.083.219 27.001-19.246 16.783-32.938z" fill="url(#SVGID_11_)"/></g><path d="m258.743 334.101c-17.753-4.471-36.264.349-49.499 12.259 8.475 6.298 17.299 11.909 26.396 16.834l5.825-8.128c6.427-8.968 15.249-15.526 25.14-19.205-2.63-.531-5.254-1.104-7.862-1.76z" fill="url(#SVGID_12_)"/><path d="m171.024 397.513c8.787 6.541 17.865 12.512 27.185 17.909l20.76-28.966c-9.389-5.262-18.506-11.187-27.29-17.762z" fill="url(#SVGID_13_)"/><path d="m66.165 507.619c27.008 6.405 56.318-.45 77.696-19.766-8.613-5.328-17.053-11.043-25.304-17.133l-2.345 3.272c-12.698 17.719-30.67 29.029-50.047 33.627z" fill="url(#SVGID_14_)"/></g></svg>