<svg width="143" height="200" viewBox="0 0 143 200" fill="none" xmlns="http://www.w3.org/2000/svg">
<path d="M92.6802 135.982C90.0604 135.243 88.6455 135.354 86.1624 135.982L113.305 66.6071L106.966 62.0536C111.422 63.1008 113.897 63.9525 118.216 66.4286C107.265 93.9404 100.627 111.339 92.6802 135.982Z" fill="#108FB7"/>
<path d="M109.555 48.125C102.771 50.5615 100.358 50.9403 97.3231 50.7143C101.822 49.8741 103.597 49.4029 103.484 48.5714C83.9302 21.6964 80.6807 23.9187 71.2517 4.55357C62.8588 22.8571 51.4302 29.5536 38.7517 48.5714C38.841 49.8214 42.4124 50.1786 44.9124 50.7143C41.3337 50.7185 38.9781 50.4174 32.8588 48.2143L71.2517 0L109.555 48.125Z" fill="#108FB7"/>
<path d="M71.2517 7.76786L69.1088 10.3571C70.0642 8.59216 70.5534 7.61134 71.2517 5.89286C71.962 7.61808 72.4208 8.5963 73.3052 10.3571L71.2517 7.76786Z" fill="#108FB7"/>
<path d="M35.4481 62.0536C30.7853 63.1843 28.2575 64.0763 24.0195 66.4286C35.9273 95.8993 42.1237 112.532 51.5195 142.589C53.9388 137.535 55.0017 134.464 57.1445 129.286C55.9879 130.001 55.5183 130.728 54.7338 132.143L29.1088 66.6071L35.4481 62.0536Z" fill="#108FB7"/>
<path d="M73.7517 167.679L70.2695 168.036C73.4025 170.383 75.9966 170.741 82.2338 169.464L85.5374 158.75C82.3758 157.783 80.9421 156.807 79.1088 154.286L73.7517 167.679Z" fill="#108FB7"/>
<path d="M77.2338 184.554C72.3647 184.699 69.6113 184.26 64.2874 182.232C65.8052 189.375 68.5731 192.5 71.2517 200C73.0374 193.482 75.6564 190.652 77.2338 184.554Z" fill="#108FB7"/>
<path d="M71.2508 189.018L69.8223 191.964C70.8534 193.607 71.0948 194.698 71.2508 196.785C71.4031 194.482 71.6643 193.408 72.5008 191.964C71.8855 190.737 71.6503 190.127 71.2508 189.018Z" stroke="white" stroke-width="0.3"/>
<path d="M86.7843 169.461C98.8378 165.265 97.6771 154.461 94.4609 154.282L95.8055 150.624C94.1983 153.035 90.6269 157.053 87.1447 157.053H86.8769C81.387 156.932 78.9667 153.221 78.4446 148.392C78.1688 142.857 83.2541 136.985 89.2876 136.963C94.9126 136.963 104.487 141.627 105.626 154.282C106.877 201.16 20.5376 191.16 60.6235 126.338V122.499C51.5192 100.088 62.4639 79.4959 71.07 79.4609C78.9443 79.461 84.9897 92.2271 85.1235 105.535C84.9093 112.678 83.4807 121.517 79.7307 125.354V125.979C77.1414 132.943 66.07 147.318 64.5489 156.247C61.4274 171.336 76.9629 173.568 86.695 169.492L86.7843 169.461Z" fill="#B18AB2"/>
<path d="M80.8943 125.447C85.5371 118.215 89.6443 98.7506 79.9121 84.7327L84.2871 78.2148C99.0193 88.572 100.894 113.483 80.8943 125.447Z" fill="#DBD5E1"/>
<path d="M62.4105 84.8211L58.2141 78.3926C44.1979 86.0711 41.2514 113.035 59.9998 124.464V122.768C54.2864 109.732 55.8042 94.0176 62.4105 84.8211Z" fill="#DBD5E1"/>
<path d="M79.644 84.3723C74.9119 76.9639 67.4119 76.8747 62.8583 84.3723C61.6221 81.5657 60.8947 80.1659 59.019 77.4997C61.1349 76.1093 62.2012 75.3498 63.4833 74.1069C61.9723 67.4028 59.8629 65.0635 55.5369 61.5176C50.393 60.2949 47.2415 59.7053 41.1619 58.7497L43.394 56.4283C42.144 57.3211 40.3583 59.0176 39.4655 59.1961C37.5905 59.7319 26.9655 63.6604 20.4476 64.8211L21.1619 62.9461C20.4479 63.5711 19.733 64.3747 19.9116 66.7854L18.9296 66.5176C19.3761 67.0533 19.9116 67.3193 19.9116 68.1247C19.9118 72.0533 13.7509 71.8747 13.9296 68.1247C14.0394 66.996 14.4938 66.4241 15.5368 65.4461C14.8491 64.6547 14.4268 64.2411 13.4832 63.6604C12.0547 64.0176 10.8939 64.3747 9.73323 65.2676L9.2868 64.1961C9.82251 68.1247 3.6618 68.1247 3.6618 64.1961C3.84037 60.5354 8.0368 61.339 10.7154 59.9997C10.2689 59.7319 7.67966 57.4997 5.98323 57.7676C6.31608 57.1827 6.41628 56.8124 6.42966 56.0711C5.44747 59.9104 -0.0882585 58.3033 0.00108676 55.5354C0.00108676 53.4424 1.87605 52.9789 3.84033 52.9789C4.73319 53.0354 6.07247 52.3211 7.59033 52.3211C9.55462 52.3211 10.8046 54.1961 12.2332 54.1069C14.6439 53.9562 22.1228 50.4127 30.5369 49.0176C37.9476 51.4283 44.7333 52.1426 54.9119 52.9461C56.6083 55.714 57.2858 57.729 56.6083 60.714C58.3235 61.522 59.2349 62.0586 60.7155 63.3033C60.7155 65.4461 64.7333 67.6783 65.894 69.7319C68.6619 69.9104 73.9297 69.9104 76.4297 69.7319C78.0265 67.3878 79.7333 66.5176 81.519 64.2854C81.3556 62.8346 83.1084 62.0415 85.894 60.6247C84.8226 58.6604 85.7537 55.7874 87.4119 52.9461C97.9744 52.0761 103.818 51.5369 111.876 49.0176C128.215 52.8569 128.215 54.3747 130.09 54.1961C131.162 54.1961 133.037 52.2319 134.823 52.2319C136.608 52.2319 136.698 52.9461 138.662 52.9461C140.358 52.9461 142.285 53.7383 142.323 55.714C142.501 57.589 137.323 60.5354 135.894 55.8926C135.95 56.7613 136.007 57.2135 136.34 57.7676C135.336 57.7223 134.43 58.0279 131.43 59.9104L136.608 61.5176C137.501 61.7854 138.483 62.4104 138.662 64.2854C139.108 67.589 133.126 68.5711 132.948 64.2854C132.779 64.6003 132.696 64.791 132.59 65.1783C131.193 64.3944 130.384 64.0162 128.84 63.5711L126.698 65.3569C127.9 66.7674 128.299 67.3834 128.305 68.0354C128.662 71.5176 122.412 72.4997 122.412 68.0354C122.428 67.4348 122.948 67.0533 123.305 66.5176L122.412 66.8747V64.9104L121.162 62.8569L121.876 64.7319C118.84 64.5533 112.769 62.589 106.698 60.5354C102.858 59.2369 101.608 58.9283 98.8405 56.339L101.073 58.7497C95.6938 59.5895 92.6219 60.1606 86.9655 61.4283C82.2333 64.8211 79.9119 68.5711 78.9297 74.464L83.3047 77.4104C81.3137 80.5297 80.486 82.0462 79.644 84.3723Z" fill="#DBD5E1"/>
<path d="M57.2325 60.5357C57.6608 57.1995 57.1984 55.5132 55.3575 53.0357C55.3446 51.9 56.3118 51.5457 59.1968 51.25C61.786 51.25 62.411 53.5721 64.0183 55.0893C62.5227 57.8691 61.7965 59.4982 60.804 62.5893C59.4934 61.5185 58.6982 61.1113 57.2325 60.5357Z" fill="#DBD5E1"/>
<path d="M83.0368 51.25C80.0904 51.25 80.269 53.5714 78.3047 55C80.0809 58.1349 80.7494 59.7642 81.519 62.5C82.7953 61.4591 83.5731 61.0993 85.0904 60.5357C84.5303 57.1777 85.1638 55.547 86.9654 53.0357C87.0626 51.9569 86.2832 51.5539 83.0368 51.25Z" fill="#DBD5E1"/>
<path d="M66.2521 69.1066L61.4307 64.3744C61.3211 63.6084 61.2314 63.0352 61.4307 62.2316C62.228 59.0173 63.6622 56.7852 64.3765 54.9994C64.9044 54.4875 65.3926 54.0823 66.2521 53.6602V51.7852C67.3575 52.7664 67.9194 53.3769 68.7521 54.6423C70.7423 55.0446 71.7872 55.0048 73.5735 54.6423C74.7525 53.0115 75.246 52.4509 75.9843 51.7852V53.6602C76.8342 53.8726 77.5128 54.361 78.0608 54.9994C79.1093 57.4102 80.5134 61.0709 80.8057 61.8744C81.1601 62.8488 81.1282 63.4007 80.8057 64.3744L75.9843 69.1066H66.2521Z" fill="#DBD5E1"/>
<path d="M62.5904 47.5887C62.8576 43.303 60.3576 40.3566 63.394 38.0352C63.8486 40.0469 64.1558 40.9115 64.7325 42.3209C63.8097 38.3476 63.7292 35.6315 63.5718 30.803L66.7861 29.2852C67.1432 33.1244 67.5896 34.7316 69.0182 37.1423V36.2494C70.7475 36.5057 71.7132 36.4871 73.3039 36.2494V37.1423C75.0003 35.178 75.5361 30.0887 75.5361 29.2852L78.5718 30.803C78.707 35.3179 78.3938 37.8979 77.5896 42.3209C78.2912 41.3033 78.5718 39.8209 78.9289 38.0352C81.8753 40.4459 79.4646 42.4994 79.7325 47.5887C78.2146 50.8923 74.2861 51.3387 73.2146 54.0173C71.8375 54.353 70.7809 54.3559 69.0182 54.0173C67.4111 50.5352 64.7325 51.5173 62.5904 47.5887Z" fill="#DBD5E1"/>
<path d="M72.3223 52.5901L73.0366 51.6973" stroke="#69446A" stroke-width="0.6" stroke-linecap="round" stroke-linejoin="round"/>
<path d="M70.0014 52.5901L69.8228 52.3669L69.2871 51.6973" stroke="#69446A" stroke-width="0.6" stroke-linecap="round"/>
</svg>
