<svg width="62" height="67" viewBox="0 0 620 677" fill="none" xmlns="http://www.w3.org/2000/svg">
<path d="M133 302.5L120 284.5C124.671 375.76 165.262 469.742 228.188 532.5C233.394 529.922 234.776 531.358 235.381 539.5C240.143 544.022 245.018 548.434 250 552.732C255.77 553.921 259.562 556.636 260.5 561.495C276.409 574.335 293.305 586.048 311 596.5C311 596.5 322.5 589.5 324 588C325.452 586.548 326.113 577.722 323.742 575.678L311 584.5C205 519 139 405.5 133 302.5Z" fill="black"/>
<path d="M324 575.5L311 584.5C205 519 139 405.5 133 302.5L120 284.5C124.671 375.76 165.262 469.742 228.188 532.5C233.394 529.922 234.776 531.358 235.381 539.5C240.143 544.022 245.018 548.434 250 552.732C255.77 553.921 259.562 556.636 260.5 561.495C276.409 574.335 293.305 586.048 311 596.5C311 596.5 322.5 589.5 324 588C325.5 586.5 326.155 577.136 323.5 575.5" stroke="black"/>
<path d="M309.998 137.5C267.498 168.5 219.998 187.5 183.498 200.5L118.5 221C119.07 248.403 118.969 264.346 119.998 285L126.248 293L132.998 303C129 270.5 131.126 253.522 129.998 226.5C151.366 220.82 159.536 218.175 186.498 209C237.476 190.281 268.028 177.922 309.498 150.5C353.788 179.069 382.954 193.96 431.998 211C454.911 219.191 467.697 223.065 490.5 229.5L489 299L500 284.5L502 221C475.839 214.155 461.203 210.149 435.498 201C397.498 186.5 350.498 168 309.998 137.5Z" fill="black" stroke="black"/>
<path d="M372.5 538C441.5 469 482.884 379 489 299L500 285C495.5 394 435.5 497 376 549L372.5 538Z" fill="black" stroke="black"/>
<path d="M334.929 332.551L333.817 330.908L335.165 329.452C395.417 264.351 412.533 244.503 423.259 228.997C449.715 155.653 470.024 110.607 491.246 79.3734C512.572 47.9854 534.76 30.6355 564.693 12.524L564.728 12.502L564.869 12.415C564.991 12.3396 565.169 12.2302 565.396 12.092C565.85 11.8159 566.5 11.4244 567.289 10.96C568.866 10.0329 571.015 8.80709 573.284 7.62463C575.538 6.44995 577.978 5.28247 580.122 4.5005C581.189 4.11111 582.261 3.78824 583.244 3.62274C584.136 3.47262 585.366 3.37522 586.486 3.8549C588.276 4.62151 589.379 6.34459 590.139 8.13988C590.934 10.0199 591.582 12.5287 592.145 15.6483C593.216 21.5755 594.063 30.1869 594.863 41.9817C597.216 40.6397 599.516 39.3076 601.732 38.0006L601.839 37.9375L601.952 37.8854C603.975 36.9483 605.418 36.3242 606.476 35.9757C607.423 35.6634 608.584 35.3794 609.758 35.7702C612.048 36.4518 613.339 38.6546 614.119 40.5737C614.98 42.6938 615.597 45.4277 616.054 48.4436C616.972 54.505 617.316 62.256 617.379 69.8205C617.442 77.4083 617.221 84.9065 616.985 90.5008C616.867 93.2999 616.745 95.6266 616.653 97.2551C616.606 98.0693 616.568 98.7092 616.54 99.1465C616.527 99.3499 616.517 99.5094 616.51 99.6223L616.502 102.659C616.452 123.054 615.004 134.216 609.922 153.296L609.602 154.499L609.394 154.583L608.917 156.317C601.56 183.02 596.253 197.201 581.517 217.138L581.136 217.653L580.555 217.922C539.344 236.953 516.826 263.293 476.568 322.064L476.259 322.515L475.789 322.796C461.394 331.411 448.801 338.508 437.774 344.723C436.135 345.646 434.531 346.55 432.961 347.437C420.802 354.302 410.716 360.099 402.218 365.846C385.337 377.263 374.845 388.402 367.323 407.084L363.849 415.713L362.53 406.505C360.16 389.97 357.477 377.748 353.302 366.555C349.132 355.374 343.435 345.114 334.929 332.551ZM614.002 99.6533L614.911 99.715L614.911 99.715C614.653 99.6974 614.352 99.677 614.002 99.6533Z" fill="black" stroke="white" stroke-width="5"/>
<path d="M512.562 106.038C512.562 106.038 547.741 72.0273 557.02 72.0254C566.299 72.0234 558.974 119.043 558.974 119.043C537.75 140.713 530.994 148.306 531.127 151.055C534.126 178.258 534.32 193.023 527.707 217.08" stroke="white" stroke-width="3"/>
<g  fill="none" >
<path d="M285.075 332.4L286.187 330.757L284.839 329.301C224.588 264.2 207.472 244.351 196.746 228.845C170.291 155.501 149.981 110.454 128.76 79.2199C107.434 47.8316 85.2457 30.4815 55.3132 12.3698L55.2779 12.3478L55.1373 12.2608C55.0152 12.1854 54.8372 12.076 54.6103 11.9378C54.1566 11.6617 53.5069 11.2702 52.717 10.8058C51.1401 9.87869 48.9914 8.65286 46.7225 7.47039C44.4685 6.29569 42.0284 5.12819 39.8848 4.34622C38.8174 3.95683 37.7457 3.63394 36.7623 3.46844C35.8703 3.31833 34.6408 3.22092 33.5205 3.70061C31.7302 4.46723 30.628 6.19033 29.8681 7.98563C29.0722 9.86564 28.4247 12.3744 27.8612 15.4942C26.7907 21.4214 25.9432 30.0329 25.1436 41.8278C22.7909 40.4858 20.4904 39.1537 18.2748 37.8467L18.1678 37.7836L18.0551 37.7314C16.0316 36.7944 14.5884 36.1703 13.5307 35.8217C12.5833 35.5095 11.4225 35.2255 10.2485 35.6162C7.95834 36.2978 6.66742 38.5007 5.88815 40.4198C5.02724 42.5399 4.40944 45.2738 3.95274 48.2898C3.03485 54.3512 2.69048 62.1023 2.62798 69.6668C2.56529 77.2548 2.78605 84.753 3.02179 90.3474C3.13974 93.1465 3.26163 95.4733 3.35412 97.1017C3.40038 97.916 3.43929 98.5559 3.46671 98.9932C3.47946 99.1966 3.48972 99.3561 3.49708 99.469L3.50459 102.506C3.55502 122.901 5.0032 134.063 10.0843 153.143L10.4046 154.346L10.6123 154.431L11.0899 156.164C18.4471 182.868 23.7533 197.048 38.4896 216.986L38.8704 217.501L39.4519 217.77C80.6619 236.801 103.18 263.141 143.438 321.913L143.747 322.364L144.216 322.645C158.611 331.26 171.205 338.358 182.232 344.573C183.871 345.496 185.474 346.4 187.044 347.286C199.203 354.152 209.289 359.948 217.787 365.696C234.667 377.113 245.159 388.251 252.681 406.934L256.155 415.563L257.475 406.355C259.844 389.82 262.528 377.598 266.702 366.405C270.872 355.223 276.569 344.963 285.075 332.4ZM6.00458 99.5L5.09572 99.5617L5.09566 99.5617C5.35419 99.5441 5.65487 99.5237 6.00458 99.5Z" fill="black" stroke="white" stroke-width="5"/>
<path d="M108.003 105.998C108.003 105.998 72 72 62.5033 71.998C53.0065 71.9961 60.5033 118.998 60.5033 118.998C82.2252 140.66 89.1395 148.25 89.0033 150.998C85.9338 178.191 85.7358 192.95 92.5033 216.998" stroke="white" stroke-width="3"/>
<path d="M229.513 583.504C228.501 582.499 228.527 560.509 232.013 556.004C235.5 551.5 256 553.5 257.513 560.004C259.027 566.509 230.526 584.509 229.513 583.504Z" fill="black" stroke="black"/>
<path d="M207.734 578.588C203 571 190 536.5 199.505 533C199.505 533 199.894 532.898 200.128 532.921C204.457 533.352 217.505 550 217.505 550C212.153 561.696 210.138 568.094 208.085 578.588C208.014 578.886 207.912 578.87 207.734 578.588Z" fill="black" stroke="black"/>
<path d="M294.497 508C294.497 508 281.497 482 282.993 465.502L309 482L335.502 465C360.502 508.5 373.501 541.5 380.001 574.5C414.501 726.5 132.5 703 227.494 537C227.635 536.827 227.774 536.66 227.91 536.5C232.086 531.572 233.478 532.815 232.994 542.5C232.919 543.998 232.994 544.593 232.499 546C216.494 591.5 234.493 635.5 272.507 637.401H276.495C332.997 632 337.997 585.5 315.497 544.5C310.021 532.526 295.497 511 294.497 508Z" fill="black" stroke="black"/>
<path d="M260.501 450.5C260 448.504 218 466 218 469.503C218 473.005 242.999 493.505 246 493C249.001 492.495 272.199 464.978 270.501 463.998C268.802 463.019 261.001 452.496 260.501 450.5Z" fill="black" stroke="black"/>
<path d="M205.5 456.5C204 456.002 181.5 427.5 181.5 424C181.5 420.5 242 420.999 245.5 424C249 427 253 434.999 252.5 437.5C252 440 207 456.998 205.5 456.5Z" fill="black" stroke="black"/>
<path d="M169.494 405.009C165.496 402.507 148.285 361.51 149.494 353.009C150.704 344.507 224.989 381.017 228.994 386.009C233 391 241 409.5 240.994 412.009C240.989 414.517 173.493 407.51 169.494 405.009Z" fill="black" stroke="black"/>
</g>
<path d="M358.988 450.353C359.484 448.384 401.068 465.641 401.068 469.096C401.068 472.551 376.317 492.769 373.346 492.272C370.375 491.774 347.406 464.633 349.087 463.667C350.769 462.701 358.493 452.322 358.988 450.353Z" fill="black" stroke="black"/>
<path d="M414.101 456.197C415.602 455.698 438.119 427.1 438.118 423.588C438.118 420.076 377.575 420.578 374.072 423.588C370.569 426.599 366.567 434.625 367.067 437.134C367.567 439.643 412.6 456.697 414.101 456.197Z" fill="black" stroke="black"/>
<path d="M449.977 404.549C454 402.035 471.316 360.829 470.099 352.285C468.882 343.74 394.142 380.436 390.112 385.452C386.082 390.469 378.033 409.063 378.039 411.584C378.044 414.106 445.953 407.063 449.977 404.549Z" fill="black" stroke="black"/>
<path d="M309.5 192.5C303.42 224.796 299.604 240.708 291.5 262.5C298.543 284.582 300.522 296.075 298.5 314C293.802 308.822 290.121 303.443 283 292.5C286.111 310.799 289.099 320.835 310 336C325.631 323.821 331.272 314.035 337 292.5C331.087 301.617 327.618 306.518 320.5 314C319.093 293.567 321.158 282.355 328.5 262.5C321.031 242.171 316.875 226.121 309.5 192.5Z" fill="black" stroke="black"/>
<path d="M322.5 296.5L322 310C338.5 289.5 344 270.5 347 230C332 252 323 287 322.5 296.5Z" fill="black" stroke="black"/>
<path d="M273 231.5C274.918 267.452 281.243 288.19 296.5 309C296.975 279.842 290.628 262.74 273 231.5Z" fill="black" stroke="black"/>
<path d="M281.5 356C265.5 369.5 259.5 387 255.5 406H364C361.5 389.5 355.5 372.5 338 356C338 356 325 362.5 310 378C298 364 281.5 356 281.5 356Z" fill="white"/>
<path d="M280.973 359.5C270.491 375 261.491 390 259.49 408.5C259.166 411.5 259.053 413.197 259.49 416.5C260 420.5 265.994 438 275.994 453.5C278.066 456.711 290.5 467 308.973 477.5L309.091 477.42C330 465 338 459.5 345 451.5C352 441 360.5 418 360.5 415V409C360 395 346 368.5 337.973 359.5L337.167 360.123C326.65 368.249 320.214 373.222 309.973 382C292.973 368 280.973 359.5 280.973 359.5Z" fill="black"/>
<path d="M308.973 477.5C309.013 477.473 309.052 477.447 309.091 477.42M308.973 477.5L309.091 477.42M308.973 477.5C290.5 467 278.066 456.711 275.994 453.5C265.994 438 260 420.5 259.49 416.5C259.053 413.197 259.166 411.5 259.49 408.5C261.491 390 270.491 375 280.973 359.5C280.973 359.5 292.973 368 309.973 382C320.473 373 326.973 368 337.973 359.5C346 368.5 360 395 360.5 409V415C360.5 418 352 441 345 451.5C338 459.5 330 465 309.091 477.42" stroke="black"/>
<path d="M255.006 406C257.069 374.414 263.921 354.997 287.506 317.5C295.375 327.615 300.153 332.563 310 339C320.59 331.37 325.126 326.216 331.5 316C355.373 356.908 362.715 376.81 364.5 406C359.207 383.537 354.123 372.108 338 355.5C327.039 362.656 320.916 367.681 310 377C300.528 368.386 293.997 363.717 281 355.5C266.613 370.421 261.535 382.173 255.006 406Z" fill="black" stroke="black"/>
</svg>
